<?xml version="1.0" encoding="UTF-8"?>
<svg xmlns="http://www.w3.org/2000/svg" xmlns:xlink="http://www.w3.org/1999/xlink" viewBox="0 0 416 416">
  <defs>
    <style>
      .cls-1 {
        fill: #fff;
      }

      .cls-2 {
        filter: url(#drop-shadow-1);
      }

      .cls-3 {
        fill: none;
      }
    </style>
    <filter id="drop-shadow-1" filterUnits="userSpaceOnUse">
      <feOffset dx="5" dy="5"/>
      <feGaussianBlur result="blur" stdDeviation="10"/>
      <feFlood flood-color="#000" flood-opacity=".15"/>
      <feComposite in2="blur" operator="in"/>
      <feComposite in="SourceGraphic"/>
    </filter>
  </defs>
  <g id="Capa_1" data-name="Capa 1"/>
  <g id="Capa_2" data-name="Capa 2">
    <g id="Capa_1-2" data-name="Capa 1">
      <rect class="cls-3" width="416" height="416"/>
      <g class="cls-2">
        <path class="cls-1" d="M377.58,165.59c-.37,3.59-.53,7.21-1.1,10.79-2.06,12.97-5.01,25.82-7.32,38.76-.01,.08-.07,.16-.11,.24-.48,2.79-1.11,5.57-1.39,8.37-.45,4.36-.58,8.75-1,13.11-.49,5.19-.72,10.41-2.33,15.51-3.6,11.39-12.91,18.45-26.31,22.44-8.29,2.46-16.96,3.32-25.7,3.87-12.11,.77-24.22,.6-36.33,.23-5.74-.18-11.46-.61-17.19-.94-4.82-.27-9.65-.53-14.48-.84-4.39-.28-8.77-.63-13.16-.93-3.07-.21-6.15-.41-9.23-.54-9.63-.41-19.25-.94-28.91-.91-7.09,.02-14.18,.13-21.25,.6-.34,.02-.66-.02-1,.24-6.01,4.51-12.95,8.08-19.37,12.18-4.8,3.08-9.45,6.28-13.04,10.34-4.15,4.7-6.17,9.88-5.45,15.67,.06,.51,.09,1.02,.12,1.53,.01,.07-.08,.14-.22,.35-1.04-.77-2.05-1.5-3.03-2.25-13.69-10.52-25.29-22.33-34.69-35.52-.51-.71-1.14-1.09-2.15-1.33-19.01-4.42-31.87-14.34-39.73-28.64-4.16-7.56-6.25-15.57-7.75-23.69-1.12-6.13-2.15-12.27-3.18-18.41-.29-1.69-.45-3.39-.66-5.09-.88-3.6-1.33-7.26-1.9-10.89-1.06-6.78-1.81-13.59-1.8-20.43,.02-12.11,2.23-23.84,9.36-34.73,7.54-11.52,19.23-19.08,34.37-23.4,9.33-2.67,19-3.83,28.86-4.18,10.54-.37,21.02,.25,31.5,.99,14.84,1.05,29.67,2.2,44.59,1.82,13.51-.34,26.95-1.32,40.35-2.68,15.77-1.6,31.44-3.71,47.19-5.4,12.39-1.33,24.83-2.21,37.36-1.86,11.11,.32,21.97,1.58,32.28,5.15,14.1,4.89,23.35,13.34,28.64,24.73,3.15,6.78,4.59,13.83,5.17,21.01,.39,4.91,.49,9.82-.01,14.73Z"/>
      </g>
    </g>
  </g>
</svg>