<?xml version="1.0" encoding="UTF-8"?>
<svg xmlns="http://www.w3.org/2000/svg" viewBox="0 0 242.09 45.27">
  <defs>
    <style>
      .cls-1 {
        fill: #fdfd01;
      }

      .cls-2 {
        fill: #010101;
      }

      .cls-3 {
        fill: #fefefe;
      }
    </style>
  </defs>
  <g id="Capa_1" data-name="Capa 1"/>
  <g id="Capa_2" data-name="Capa 2">
    <g id="Capa_1-2" data-name="Capa 1">
      <g>
        <path class="cls-2" d="M155.54,13.67c0-4.28,.02-8.56-.02-12.84,0-.68,.19-.83,.85-.83,6.26,.02,12.52-.03,18.77,.03,3.71,.04,7.36,.49,10.76,2.14,4.45,2.15,6.71,5.81,7.28,10.62,.28,2.42,.23,4.83-.41,7.2-.8,2.96-2.55,5.23-5.13,6.85-.54,.34-.55,.57-.29,1.1,2.75,5.53,5.46,11.07,8.2,16.6,.3,.6,.21,.73-.46,.72-5.1-.02-10.2-.02-15.31,0-.5,0-.74-.16-.94-.61-1.97-4.28-3.97-8.55-5.96-12.82-.07-.15-.17-.3-.21-.46-.12-.47-.46-.52-.84-.46-.46,.07-.25,.45-.25,.68-.01,4.28-.03,8.56,0,12.84,0,.66-.17,.84-.83,.83-4.76-.03-9.53-.03-14.29,0-.74,0-.93-.17-.93-.92,.03-9.21,.02-18.41,.02-27.62,3.72-.3,7.45-.59,11.17-.89,.58-.05,1.28,.02,1.69-.29,.23-.17-.05-.99-.05-1.52,0-.38-.07-.55-.51-.54-1.29,.04-2.59,.03-3.88,.06-2.81,.05-5.62,.18-8.43,.11Zm13.3,5.35c1.47,1,2.59,.71,3.36-.88,.14-.28,.18-.57,.64-.59,2.1-.06,4.09-.6,5.96-1.57,.94-.49,1.65-1.5,1.51-2.28-.19-1.03-.78-1.71-1.82-2.05-1.86-.62-3.75-.82-5.69-.66-.6,.05-.95-.13-1.28-.63-.82-1.25-2.36-1.28-3.31-.1,.64,.09,1.16,.39,1.51,.95,.12,.19,.26,.41,.03,.6-.49,.4-.49,1.01-.54,1.53-.11,1.16-.05,2.33,.53,3.39,.18,.32,.76,.44,.43,1-.22,.36-.39,.74-.78,.96-.19,.11-.37,.23-.56,.34Z"/>
        <path class="cls-1" d="M155.54,13.67c2.81,.07,5.62-.05,8.43-.11,1.29-.02,2.59-.02,3.88-.06,.44-.01,.51,.15,.51,.54,0,.53,.28,1.34,.05,1.52-.41,.3-1.11,.24-1.69,.29-3.72,.3-7.45,.6-11.17,.89-3.03,.24-6.06,.48-9.08,.74-1.51,.13-3.02,.3-4.53,.45-.22,0-.45,0-.67,.01-4.52,.45-9.04,.9-13.57,1.36-.37-.01-.73,0-1.08,.15-1.43,.13-2.86,.23-4.29,.39-5.29,.59-10.58,1.18-15.86,1.81-2.01,.24-4.03,.4-6.01,.8-3.05,.24-6.08,.72-9.11,1.12-5.12,.68-10.23,1.41-15.35,2.13-1.47,.21-2.94,.46-4.41,.69-.14,0-.28-.01-.42,0-2.99,.45-5.98,.9-8.97,1.37-2.21,.35-4.41,.75-6.62,1.12-2.68,.3-5.32,.83-7.98,1.27-1.88,.31-3.75,.68-5.63,1.02-1.47,.26-2.94,.49-4.4,.77-3.9,.73-7.8,1.42-11.67,2.3-3.27,.6-6.52,1.26-9.74,2.08-1.48,.31-2.96,.6-4.43,.94-3.9,.92-7.79,1.86-11.68,2.79,0-4.78,0-9.55,0-14.33,5.37-.71,10.74-1.42,16.11-2.14,3.25-.38,6.5-.76,9.75-1.15,5.36-.58,10.71-1.15,16.07-1.73l13.59-1.31c.17,0,.34,.01,.5,0,5.17-.45,10.34-.9,15.51-1.35,3.96-.29,7.91-.58,11.87-.86,3.9-.28,7.8-.53,11.7-.8,1.77-.12,3.53-.24,5.3-.37,.36,0,.73,.01,1.09,0,5.8-.32,11.6-.64,17.4-.97,1.87-.11,3.75-.08,5.62-.32,1.04-.03,2.08-.06,3.12-.09,3.43-.13,6.86-.25,10.29-.4,1.32-.06,2.64,.06,3.95-.18,2.75,.07,5.49-.14,8.24-.18,1.79-.03,3.59-.02,5.38-.19Z"/>
        <path class="cls-2" d="M198.77,.02c5.69,0,11.24,.01,16.79-.02,.57,0,.68,.27,.82,.7,1.62,4.93,3.26,9.85,4.97,14.99,.58-1.71,1.1-3.24,1.62-4.76,1.17-3.44,2.34-6.87,3.5-10.31,.11-.33,.17-.61,.64-.61,4.96,.02,9.91,0,14.99,0-.88,1.72-1.71,3.36-2.55,5-3.48,6.82-6.96,13.64-10.46,20.46-.2,.39-.24,.79-.24,1.22,0,5.91,0,11.82,.02,17.74,0,.67-.18,.83-.84,.83-4.85-.03-9.69-.03-14.54,0-.67,0-.84-.17-.84-.83,.03-5.86,.01-11.71,.02-17.57,0-.49-.08-.92-.32-1.36-4.4-8.21-8.78-16.43-13.16-24.65-.13-.24-.25-.49-.42-.84Z"/>
        <path class="cls-2" d="M100.44,22.43c1.99-.39,4.01-.56,6.01-.8,5.28-.63,10.57-1.22,15.86-1.81,1.43-.16,2.86-.26,4.29-.39,.32,.76,.63,1.52,.95,2.29l.13-.03v-2.4c4.52-.45,9.04-.91,13.57-1.36,.22-.02,.45,0,.67-.01,0,8.87,0,17.74,.02,26.6,0,.59-.14,.75-.74,.74-4.62-.03-9.24-.02-13.87,0-.52,0-.78-.15-1.01-.63-3.67-7.63-7.37-15.26-11.06-22.88-.1-.21-.21-.43-.34-.7-.24,.38-.15,.69-.15,.97,0,7.43-.02,14.86,.02,22.3,0,.8-.23,.96-.98,.95-4.2-.04-8.4-.03-12.6,0-.65,0-.78-.17-.78-.8,.02-7.35,0-14.7,0-22.04Z"/>
        <path class="cls-2" d="M71.58,18.05c-5.17,.45-10.34,.9-15.51,1.35-.17,.01-.34,0-.5,0,0-6.16,.02-12.32-.02-18.49,0-.77,.21-.91,.94-.91C66.62,.03,76.76,.03,86.9,0c.76,0,.92,.19,.91,.92-.04,3.74-.03,7.48,0,11.23,0,.63-.14,.79-.78,.79-4.87-.03-9.75,0-14.62-.03-.66,0-.87,.16-.84,.83,.05,1.43,.02,2.87,.02,4.3Z"/>
        <path class="cls-2" d="M55.56,28.88c2.21-.38,4.41-.77,6.62-1.12,2.99-.48,5.98-.92,8.97-1.37,.14-.02,.28,0,.42,0,0,1.75,.04,3.49-.01,5.24-.02,.71,.23,.82,.86,.82,5.13-.02,10.26,0,15.39-.03,.68,0,.89,.13,.88,.85-.04,3.74-.04,7.49,0,11.23,0,.63-.14,.79-.79,.79-10.51-.02-21.02-.02-31.53,0-.71,0-.82-.23-.81-.86,.02-5.18,.01-10.36,.01-15.54Z"/>
        <path class="cls-2" d="M16.15,23.59c-5.37,.71-10.74,1.42-16.11,2.14C.03,17.36,.03,8.99,0,.63,0,.15,.15,0,.63,.01,5.59,.03,10.55,.04,15.51,0c.76,0,.63,.42,.63,.85,0,7.58,0,15.15,0,22.73Z"/>
        <path class="cls-2" d="M41.97,20.71c-5.36,.58-10.71,1.15-16.07,1.73,0-7.18,.01-14.36-.02-21.53,0-.78,.23-.91,.94-.9,4.76,.03,9.52,.03,14.29,0,.7,0,.89,.16,.88,.87-.03,6.61-.02,13.23-.02,19.84Z"/>
        <path class="cls-2" d="M124.56,14.72c-1.87,.24-3.75,.22-5.62,.32-5.8,.33-11.6,.65-17.4,.97-.36,.02-.73,0-1.09,0,0-5.07,0-10.14-.01-15.21,0-.6,.1-.81,.77-.81,5.5,.03,10.99,.02,16.49,.02,.36,0,.68-.04,.87,.42,1.98,4.77,3.99,9.52,5.99,14.28Z"/>
        <path class="cls-2" d="M141.92,14.04c-1.31,.25-2.63,.13-3.95,.18-3.43,.15-6.86,.27-10.29,.4,0-4.59,.02-9.18-.02-13.76,0-.72,.2-.87,.89-.86,4.2,.03,8.4,.03,12.6,0,.63,0,.79,.14,.79,.78-.03,4.42-.02,8.84-.02,13.26Z"/>
        <path class="cls-2" d="M25.89,34.24c3.87-.88,7.77-1.57,11.67-2.3,1.46-.27,2.93-.51,4.4-.77,0,4.5,0,9,.03,13.5,0,.51-.18,.59-.63,.59-4.93-.01-9.86-.02-14.79,0-.6,0-.67-.23-.67-.74,.01-3.43,0-6.86,0-10.3Z"/>
        <path class="cls-2" d="M.04,40.05c3.89-.93,7.78-1.87,11.68-2.79,1.47-.35,2.95-.63,4.43-.94,0,2.7-.03,5.4,.02,8.1,.01,.73-.22,.87-.9,.86-4.81-.03-9.63-.03-14.44,0-.68,0-.85-.18-.83-.84,.06-1.46,.03-2.92,.03-4.38Z"/>
        <path class="cls-3" d="M127.68,19.29v2.4l-.13,.03c-.32-.76-.63-1.52-.95-2.29,.35-.15,.71-.16,1.08-.15Z"/>
      </g>
    </g>
  </g>
</svg>