<?xml version="1.0" encoding="UTF-8"?>
<svg xmlns="http://www.w3.org/2000/svg" xmlns:xlink="http://www.w3.org/1999/xlink" viewBox="0 0 416 416">
  <defs>
    <style>
      .cls-1 {
        fill: #dc8c53;
      }

      .cls-2 {
        fill: #fdae68;
      }

      .cls-3 {
        fill: #040303;
      }

      .cls-4 {
        filter: url(#drop-shadow-1);
      }

      .cls-5 {
        clip-path: url(#clippath);
      }

      .cls-6 {
        fill: none;
      }
    </style>
    <filter id="drop-shadow-1" filterUnits="userSpaceOnUse">
      <feOffset dx="5" dy="5"/>
      <feGaussianBlur result="blur" stdDeviation="10"/>
      <feFlood flood-color="#000" flood-opacity=".15"/>
      <feComposite in2="blur" operator="in"/>
      <feComposite in="SourceGraphic"/>
    </filter>
    <clipPath id="clippath">
      <path class="cls-6" d="M401.84,207.9c0-107.14-86.86-194-194-194S13.84,100.76,13.84,207.9c0,26.94,5.49,52.6,15.42,75.92,.77,1.8-3.04,12.49-2.22,14.26,5.15,11.14-1.61,11.99,5.47,21.86,2.9,4.05,11.64,13.37,14.84,17.18,4.96,5.91,9.01,6.62,14.63,11.9,33.61,31.56,91.56,51.6,141.02,52.82,1.61,.04,3.23,.06,4.85,.06,107.14,0,194-86.86,194-194Z"/>
    </clipPath>
  </defs>
  <g id="Capa_1" data-name="Capa 1"/>
  <g id="Capa_2" data-name="Capa 2">
    <g id="Capa_1-2" data-name="Capa 1">
      <rect class="cls-6" width="416" height="416"/>
      <g class="cls-4">
        <g class="cls-5">
          <g>
            <path class="cls-1" d="M283.47,202.93c1.67,1.82,2.2,3.96,1.79,6.37-.13,.75-.56,1.31-1.12,1.81-2.71,2.47-5.95,3.85-9.48,4.65-3.7,.84-7.38,.62-11.04-.24-2.41-.56-3.26-2.47-2.38-5.19,8.21-.07,15.72-2.23,22.23-7.4Z"/>
            <path class="cls-2" d="M283.47,202.93c-6.51,5.17-14.02,7.33-22.23,7.4,.57-2.15,1.86-3.86,3.51-5.26,4.24-3.6,9.07-5.43,14.71-4.38,1.56,.29,2.98,.94,4.01,2.23Z"/>
            <path class="cls-3" d="M284.77,201.79c-2.02-2.37-4.81-3.03-7.75-3.05-.45,0-.71-.09-.88-.24-.67,.08-1.34,.08-2.02,.1-.67,.41-1.48,.68-2.43,.73-.87,.05-1.64,.2-2.33,.44,.18,0,.37,.02,.55,.02,.05,0,.1,.04,.36,.15-1.84,.74-3.51,1.53-4.93,2.68-.42,.45-.84,.91-1.28,1.41-.56,.64-1.24,1.17-1.95,1.68-1.42,1.87-2.35,3.8-2.54,6.04,.03,.24,.07,.47,.09,.71,.18,2.25,1.36,3.67,3.59,4.2,2.48,.58,4.99,.97,7.54,.84,.85-.04,.81,.21,.58,.81,.62-.24,1.25-.44,1.91-.59,.36-.4,.84-.61,1.53-.74,4.23-.8,8.05-2.5,11.1-5.66,.32-.33,.55-.69,.69-1.15,.95-3.13,.27-5.93-1.81-8.37Zm.63,7.29c-.13,.75-.56,1.31-1.12,1.81-2.71,2.47-5.95,3.85-9.48,4.65-3.7,.84-7.38,.62-11.04-.24-2.41-.56-3.26-2.47-2.38-5.19,.57-2.15,1.86-3.86,3.51-5.26,4.24-3.6,9.07-5.43,14.71-4.38,1.56,.29,2.98,.94,4.01,2.23,1.67,1.82,2.2,3.96,1.79,6.37Z"/>
            <path class="cls-3" d="M277.89,168.53c-1.71-1.5-3.68-2.16-6.02-1.26-2.28,.88-4.38,2.01-6.27,3.54-.14,.11-.26,.18-.37,.23-.48,.76-1.1,1.34-1.81,1.77-2.89,3.01-4.84,6.52-5.46,10.67-.27,1.81-.62,3.67,.4,5.4,.98,1.67,2.58,2.65,4.49,2.86,2.29-1.24,4.83-1.98,7.44-2.28,.52-.29,1.1-.51,1.71-.64,.31-.19,.5-.23,.65-.12,.02,0,.03,0,.05,0,.44-.29,.88-.56,1.33-.83,0-.29,.14-.5,.42-.74,1.86-1.59,3.71-3.2,5.53-4.83,1.24-1.12,2.25-2.45,2.22-4.2-.07-3.78-1.45-7.04-4.3-9.54Zm1.53,12.24c-2.8,2.57-5.48,5.3-8.81,7.22-1.9,1.09-3.9,1.9-6.06,2.31-3.11,.6-5.54-1.59-5.41-4.72,.34-8.48,7.35-15.39,14.15-17.23,.82-.22,1.55,.03,2.26,.36,1.98,.91,3.14,2.6,4.06,4.47,.65,1.33,1.08,2.75,1.11,4.28,.2,1.34-.35,2.44-1.3,3.31Z"/>
            <path class="cls-3" d="M251.41,159.88c-.04-.13-.04-.28,.01-.49,.53-2.18,.79-4.41,.61-6.65-.22-2.66-.97-5.1-3.19-6.85-1.1-.87-2.29-1.59-3.61-2.04-4-1.34-6.86-1.08-9.62,2.4-1.69,2.14-2.88,4.53-3.66,7.12-.1,.33-.22,.56-.37,.72,.07,.98-.14,1.98-.6,2.86-.67,3.24-.96,6.51-.36,9.81,.64,3.54,2.12,6.61,5.21,8.66,2.6,1.73,5.21,1.43,7.5-.71,3.65-3.42,6.04-7.57,7.33-12.37,.05-.18,.1-.33,.15-.44,.05-.71,.24-1.4,.59-2.03Zm-8.82,13.59c-2.2,2.11-4.41,2.18-6.75,.2-2.36-2.01-3.51-4.67-3.87-7.66-.7-5.71,.46-11.11,3.04-16.22,.59-1.16,1.36-2.2,2.21-3.2,1.39-1.63,3.12-2.3,5.25-1.97,2.01,.32,3.82,1.08,5.42,2.34,2.34,1.84,2.69,4.45,2.79,7.68-.62,6.8-2.58,13.54-8.08,18.82Z"/>
            <path class="cls-3" d="M241.19,401.37c-.53-10.12-2.42-20.03-4.51-29.91-1.45-6.88-3-13.73-4.51-20.6-1.08-4.89-1.81-9.86-2.95-14.73-1.73-7.43-3.72-14.8-5.52-22.21-1.6-6.58-3.04-13.21-3.78-19.94-.92-8.28-.47-16.61-.38-24.92,0-.62,.22-.66,.76-.56,1.99,.37,3.99,.67,5.99,1.03,.56,.1,.98-.04,1.41-.38,3.91-3.14,7.14-6.87,9.47-11.32,.64-1.22,1.41-1.85,2.75-2.32,1.38-.48,2.67-1.06,3.93-1.68-.5-.2-1-.46-1.5-.79-3.3,1.45-6.84,2.16-10.62,2.25-4.68,.11-9.36,.3-14.02,.73-.86,.08-1.46-.18-2.08-.76-2.77-2.61-5.5-5.26-7.77-8.34-.3-.41-.57-.83-.84-1.26-.7-.16-1.38-.34-2.03-.57,.79,1.5,1.77,2.89,2.86,4.23,3,3.71,6.6,6.8,10.09,10.02,2.24,2.07,4.51,4.12,6.31,6.62,.42,.58,.82,1.17,1.09,1.88-.51,.11-.94-.04-1.38-.12-5.75-.98-11.45-2.26-17.25-2.9-2.25-.25-4.52-.56-6.78-.41-2.03,.13-3.71-.58-5.35-1.6-3.98-2.49-6.84-5.98-9.09-10.03-.37-.66-.68-1.34-1.02-2.01-2.05-4.41-3.34-9.03-3.96-13.85-.77-6-.53-11.92,1.01-17.75-.61-.17-1.18-.45-1.67-.83-.73,1.42-1.5,2.81-2.37,4.15-.41,.63-.72,.79-1.5,.45-4.53-1.94-9.29-2.8-14.2-2.87-.42,0-.75,.19-1.1,.36-4.13,2.05-7.86,4.72-11.66,7.3-.94,.64-1.83,1.36-2.88,1.83l-.09,.12v-.22c1.09-3.04,2.75-5.77,4.62-8.37,3.72-5.17,8.17-9.69,12.69-14.14,2.31-2.28,4.61-4.55,6.92-6.82-.09-.71-.07-1.45,.07-2.15-2.58,2.54-5.17,5.07-7.75,7.61-.17,.17-.34,.33-.6,.36-3.14,.41-6.08,1.55-9.08,2.45-.69,.21-1.39,.41-2.08,.61-3.35,1.07-6.72,1.94-10.29,1.7-.97-.07-1.9-.3-2.81-.63-.41-.15-.57-.32-.12-.65,.61-.45,1.19-.92,1.79-1.39,.38-.34,.72-.75,1.15-1,1.26-.74,1.49-1.92,1.63-3.23,.24-2.36,.17-4.7-.2-7.04-.03-.2-.03-.41-.04-.62,.34-.12,.54,.11,.77,.22,2.25,1.12,4.57,2.04,6.92,2.92,2.44,.91,4.82,.82,7.26,.04,2.38-.76,4.55-1.95,6.73-3.1,2.35-1.24,4.66-2.55,6.99-3.83,.26-.14,.53-.26,.89-.43-.1,1.22-.11,2.36,.19,3.46,.36-.32,.78-.57,1.28-.74-.25-1.05-.03-2.18,.01-3.27,.01-.34,.31-.41,.55-.53,1.07-.54,2.16-1.07,3.23-1.62,.31-.16,.57-.18,.93-.05,1.01,.39,2.02,.76,3.04,1.11,.02-.07,.04-.13,.05-.2,.11-.4,.2-.79,.29-1.18-.67-.23-1.38-.46-2.15-.72,.89-.46,1.73-.9,2.56-1.33,.09-.58,.18-1.17,.26-1.76-3.98,2.07-8.04,3.96-11.99,6.09-3.35,1.8-6.63,3.73-10.05,5.4-.81,.39-1.61,.83-2.51,.99-3.34,1.69-6.5,.69-9.65-.63-5.17-2.16-9.96-5.03-14.78-7.84-7.05-4.1-14.07-8.25-21.13-12.34-1.42-.82-2.22-2-2.58-3.53-.67-2.84-.68-5.76-.84-8.64-.29-4.97-.42-9.95-1.55-14.84-1.24-5.39-3.09-10.58-5.06-15.73-.77-2-1.53-4-2.32-5.99-.18-.46-.18-.84,.03-1.29,.59-1.24,1.43-2.3,2.29-3.36,1.42-1.76,3.08-3.33,4.06-5.42,.54-1.14,.38-1.44-.94-1.61,.49-.83,.93-1.54,1.96-1.83,2.96-.83,5.88-1.82,8.73-2.99,3.19-1.3,6.58-1.75,9.98-2.08,2.89-.28,5.78-.42,8.68-.61,.35-.02,.71,0,1.14,0-.8,2.87-1.44,5.69-1.88,8.56-.43,2.81-.83,5.62-1.23,8.42-.14,.97-.12,.98-.97,.44-5.54-3.53-11.29-6.65-17.36-9.17-1.14-.47-2.34-.82-3.5-1.25-.38-.14-.59-.1-.83,.24-.75,1.09-1.53,2.17-2.36,3.34,4.07,1.55,8.23,2.64,12.47,4.06-2.04,.51-3.67,1.43-5.05,2.8-2.68,2.65-3.9,5.93-4.34,9.61-.89,7.42,.7,14.41,3.46,21.22,.23,.57,.57,.86,1.23,.83,4.35-.19,8.7-.35,13.05-.52,.48-.02,.95-.1,1.05-.65,.09-.48-.27-.69-.66-.83-4.28,.17-8.57,.34-12.85,.52-.42,.02-.58-.16-.72-.5-2.76-6.87-4.18-13.95-2.91-21.34,.68-3.98,2.55-7.29,6.36-9.14,2.77-1.34,5.44-.64,7.3,1.82,.87,1.15,1.36,2.47,1.78,3.83,.14,.47,.23,1.02,.87,1.12,.67-.26,.78-.71,.57-1.37-.51-1.57-1.05-3.13-1.95-4.61,1.41,.7,2.84,1.39,4.24,2.12,1.96,1.02,3.9,2.08,5.85,3.12-.53-1.2-1.58-1.96-2.5-2.8-1.07-.97-1.05-.9-.2-2.09,2.02-2.82,3.98-5.69,5.99-8.52,.51-.72,1.13-1.37,1.74-2.11,0,2.03,.05,3.95-.01,5.87-.13,4.16-.49,8.33,.11,12.48,.27,1.86,.72,3.67,1.82,5.25,.63,.91,1,.93,1.77,.13,3.93-4.04,7.26-8.57,10.63-13.06,3.59-4.78,7.1-9.63,11.26-13.95,1.49-1.55,3.08-2.99,4.73-4.35,.4-.33,.8-.47,1.32-.42,4.02,.41,8.05,.81,12.08,1.18,.64,.06,1.13,.28,1.57,.76,.74,.79,1.57,1.5,2.16,2.42,.07,.03,.16,.06,.09,.15-.01,.02-.12-.04-.19-.06-.39-.08-.78-.17-1.05,.25-.32,.52,.06,.85,.33,1.2,3.24,4.05,5.87,8.46,7.67,13.33,.37,.99,.96,1.96,.73,3.11l-.06,.37-.05,.34c-.17,2.19-.36,4.39-.49,6.58-.19,3.13-.35,6.27-.51,9.41-.02,.4-.06,.77-.27,1.12-1.1,1.88-1.46,3.95-1.55,6.08-.1,2.51,.14,4.98,.53,7.46,.13,.34,.24,.71,.3,1.13,.09,.59,.2,1.17,.31,1.76,.28,.48,.48,1.05,.59,1.73,.14,1.03,.45,2.02,.75,3.02,.02-.02,.04-.04,.05-.06,.58,1.38,1.18,2.66,1.9,3.87,1.44,2.11,3.18,3.84,5.8,4.38,.58,.12,1.19,.14,1.78,.2,2.81-.23,5.42-.99,7.68-2.76,1.02-.8,1.53-1.91,1.92-3.09,.62-2.7,.27-5.39-.11-8.08-.19-1.34-.5-2.66-.8-3.98-.31-1-.5-1.39-.37-1.6-.87-2.14-.03-5.2,2.12-6.19,1.8-.83,3.52-1.12,5.5-1.17,.33,0,.66,0,.98-.02,.15,0,.38-.04,.55-.07,1.63-1.38,3.92-1.42,5.71-.4,1.21-.91,2.4-1.83,3.57-2.79,.35-.29,.78-.58,.56-1.11-.23-.55-.75-.5-1.25-.45-1.17,.12-2.33,.34-3.47,.65-.59,.16-1.16,.45-1.84,.39,.17-.4,.52-.47,.79-.62,4.29-2.48,8.52-5.05,12.69-7.73,.95-.61,.98-.95,.25-1.76-1.23-1.38-2.63-2.58-4.1-3.7-2.21-1.68-4.63-3.05-6.9-4.66-.1-.05-.24-.08-.14-.22,.1-.13,.19,.01,.29,.05,1.26,.58,2.49,1.22,3.81,1.67,.44,.15,.91,.28,1.21-.22,.3-.49-.06-.77-.39-1.06-.09-.08-.29-.13-.12-.38,2.38,.47,4.79,.82,7.24,.9,2.49,.08,4.95-.07,7.29-1.05,.92-.38,1.04-.76,.51-1.58-.87-1.36-2.02-2.48-3.23-3.53-3.87-3.34-8.23-5.94-12.7-8.35-9.02-4.86-18.34-8.99-28.21-11.84-.5-.14-.59-.44-.67-.83-.74-3.55-1.44-7.1-2.21-10.64-1.26-5.8-2.69-11.55-5.62-16.78-2.27-4.05-5.25-7.5-9.62-9.23-3.33-1.32-6.47-2.98-9.69-4.51-8.76-4.17-18.16-5.63-27.75-6.21-.37-.02-.68-.06-.99-.32-1.55-1.25-3.37-1.75-5.32-1.73-1.65,.02-3.28,.32-4.26,1.78-.54,.8-1.12,1.16-2.03,1.17-.27,0-.54,.08-.81,.12-9.14,1.27-17.98,3.57-26.23,7.8-5.52,2.83-10.42,6.47-14.07,11.58-1.32,1.85-2.62,3.76-3.16,5.98-2.91,11.95-4.29,24.08-3.98,36.38,.02,.69-.2,.91-.84,1.06-4.18,.97-8.37,1.87-12.4,3.39-1.05,.4-2.06,.87-2.98,1.51-.28,.19-.51,.45-.42,.84,.08,.32,.3,.54,.63,.56,.27,.02,.54-.03,.81-.07,3.36-.44,6.71-.91,10.1-.9,1.74,0,3.47,.1,5.2,.54-.22,.42-.57,.55-.87,.72-4.45,2.47-8.55,5.45-12.45,8.71-2.28,1.9-4.42,3.95-6.25,6.29-.31,.39-.78,.78-.35,1.34,.39,.51,.88,.23,1.32,.03,1.52-.67,3.04-1.34,4.54-2.04,2.68-1.26,5.27-2.69,8-3.85,.07-.01,.19-.06,.21-.04,.06,.1-.02,.13-.1,.15-.02,.06-.02,.12-.05,.17-3.6,4.68-6.75,9.65-9.69,14.77-.3,.52-1.03,1.13-.25,1.73,.72,.55,1.13-.28,1.56-.66,1.88-1.67,3.4-3.69,5.21-5.42,.23-.22,.42-.58,.83-.59,.09,.4-.17,.61-.31,.86-1.29,2.4-2.87,4.62-4.31,6.92-2.42,3.88-4.74,7.8-5.64,12.37-.2,.99,0,1.3,.98,1.39,2.17,.19,4.34,.36,6.51,.42,3.99,.11,7.98,.11,11.96,.61-1.78,.41-3.58,.73-5.32,1.32-.47,.16-1,.24-.95,.88,.05,.66,.6,.66,1.09,.67,3.18,.1,6.32,.5,9.43,1.15,4.6,.97,9.1,2.37,13.7,3.37,.68,.15,1.22,.37,1.62,.99,.27,.42,.68,.75,1.14,1.02,9.7,5.6,19.27,11.42,29.05,16.88,.16,.09,.44,.1,.39,.41-8.05,2.94-15.93,6.32-23.61,10.14-4.97,2.48-9.87,5.11-14.36,8.41-1.9,1.4-3.76,2.86-5.03,4.91-.5,.81-.23,1.33,.71,1.41,.33,.03,.67,0,1,.02,2.01,.12,3.98,.42,6.15,1.04-.85,.33-1.21,.81-1.27,1.49-.04,.42-.38,.41-.66,.49-1.05,.27-2.12,.49-3.16,.8-5.72,1.69-8,4.86-7.77,10.83,.09,2.24,.34,4.46,.62,6.68,.2,1.64,.19,1.64-1.35,2.03-.2,.05-.41,.12-.61,.18-1.13,.34-1.21,.51-1.03,1.7,.35,2.28,.97,4.48,1.78,6.63,.16,.42,.17,.78,0,1.21-.79,1.93-1.54,3.87-2.32,5.8-2.47,6.12-4.93,12.24-7.42,18.35-.27,.67-.23,1.17,.28,1.72,.62,.66,1.17,1.38,1.72,2.1,2.21,2.94,3.68,6.29,5.28,9.57,.3,.61,.34,1.15,.19,1.8-1.62,6.84-3.22,13.68-4.82,20.52-.47,1.99-.93,3.98-1.42,6.12-.28-.4-.47-.66-.66-.93-1.31-1.92-2.58-3.89-4.74-5.01-.31-.16-.28-.45-.32-.7-.26-2.02-1.12-3.81-2.12-5.55-.62-1.09-1.48-1.84-2.82-1.79-.44,.02-.48-.2-.51-.54-.12-1.14-.32-2.27-.66-3.4,.32-.06,.61-.13,.9-.16,4.5-.43,6.07-6.27,4.19-9.11-2.4-3.62-4.82-7.22-6.43-11.32-.69-1.75-2.25-2.53-4.16-2.49-1.3,.03-2.49,.43-3.62,1.03-.27,.14-.54,.44-.82-.04-1.4-2.33-3.61-3.64-6.04-4.52-3.91-1.41-7.79-1.59-11.42,.94-1.63,1.14-2.93,2.6-4.06,4.23-2.61,3.77-4.99,7.7-8,11.19-1.13,1.31-1.93,2.84-2.6,4.44-.52,1.24-.76,2.46-.18,3.76,.49,1.1,.85,2.26,1.32,3.37,1.13,2.67,2.32,5.32,2.8,8.22,.05,.32,.22,.62,.37,.92,1.76,3.43,4.19,6.34,6.85,9.09,3.98,4.11,8.45,7.68,12.67,11.54,.49,.45,1.28,.79,.61,1.69-.08,.1,.03,.35,.06,.53,.27,1.58,1.02,2.87,2.18,3.98,1.45,1.38,3.14,2.46,4.62,3.8,1.97,1.77,3.35,4.04,5,6.08,.99,1.22,1.97,2.59,3.69,2.71,1.77,.12,2.92,1.03,3.88,2.38,.37,.51,.79,1,1.25,1.43,.46,.43,.49,.88,.36,1.46-.99,4.52-1.99,9.03-2.89,13.57-2.22,11.19-3.5,22.55-5.78,33.74h3.08c.01-1.49,.47-2.91,.78-4.35,1.34-6.27,2.5-12.58,3.75-18.87,.37-1.86,1.05-3.65,1.62-5.46,2.04-6.5,3.69-13.11,5.28-19.74,2.13-8.93,4.15-17.89,6.38-26.79,1.23-4.94,2.79-9.8,4.2-14.69,.47-1.62,.96-3.24,1.45-4.85,.09-.3,.12-.65,.49-.98-.27,2.59-.21,5.06-.15,7.52,.11,4.46,.28,8.92,1.02,13.33,.05,.33,.05,.64-.14,.96-.76,1.27-1.46,2.58-2.45,3.69-.49,.55-.55,1.08-.34,1.74,.88,2.87,2.63,5.08,5.11,6.7,.62,.41,.81,.84,.78,1.54-.15,3.5-.26,6.99-.36,10.49-.01,.41-.17,.68-.45,.94-.76,.69-1.49,1.41-2.26,2.09-.54,.48-.7,1.07-.27,1.6,.94,1.17,.73,2.47,.58,3.79-.51,4.37-.79,8.76-1.09,13.15-.27,4-.54,8-.93,11.98-.53,5.45-1.22,10.88-2.49,16.23h1.63c-.11-1.08,.34-2.06,.54-3.08,1.54-8.19,2.07-16.49,2.68-24.78,.31-4.19,.67-8.38,1.02-12.56,.03-.35-.12-.86,.65-.63,.52,.16,.94-.56,.6-1.06-.66-.95-.77-2.17-1.56-3.05-.29-.32-.27-.62,.08-.92,.52-.45,1.02-.94,1.56-1.45,.89,1.35,2.16,1.43,3.56,1.21,1.94-.3,3.88-.61,5.85-.69,1.08-.04,2.07,.58,3.19,.5,.3-.02,.16,.33,.08,.5-.95,1.96-.84,4.02-.73,6.12,.18,3.41-.07,6.82-.3,10.23-.04,.56-.29,.46-.65,.35-2.44-.76-4.25-2.36-5.83-4.28-.25-.3-.48-.62-.75-.91-.31-.34-.68-.55-1.1-.18-.37,.32-.29,.71-.03,1.06,1.78,2.42,3.86,4.49,6.77,5.55,.54,.19,.86,.31,.83,1.07-.03,.71,.43,1.43,.59,2.16,.43,2.04,.16,4.09-.05,6.13-.11,1.08-.26,2.16-.3,3.24-.02,.55-.19,.86-.68,1.13-2.24,1.26-4.45,2.56-6.67,3.85-.23,.13-.46,.29-.65,.48-.24,.25-.23,.56-.01,.82,.3,.37,.68,.35,1.06,.13,1.34-.76,2.68-1.53,4.01-2.3,.71-.4,1.41-.81,2.28-1.3-.75,1.78-.11,3.41-.07,5.04,.06,2.54,.11,5.08-.16,7.61h1.45c.31-3.56,.18-7.11-.08-10.68-.1-1.39,.32-2.85,1.86-3.71,3.01-1.68,5.93-3.49,8.9-5.25,.21-.12,.44-.46,.69-.21,.25,.25-.07,.5-.21,.71-.27,.42-.49,.83-.4,1.35,.85,4.77,.08,9.52-.14,14.28-.05,1.17-.19,2.34-.29,3.51h1.45c.4-4.24,.59-8.5,.83-12.75,.09-1.57-.16-3.07-.34-4.59-.06-.48-.02-.87,.26-1.27,.39-.57,.61-1.2,.22-1.86-.25-.43,.1-.52,.33-.67,3.52-2.24,6.96-4.59,10.29-7.1,3.67-2.77,7.24-5.66,10.57-8.83,.4-.38,.91-.81,.41-1.36-.51-.55-.97-.09-1.38,.29-6.01,5.65-12.61,10.54-19.51,15.04-.25,.16-.51,.3-.89,.52,.17-1.99,.34-3.83,.39-5.69,.03-1.15-.02-2.29-.18-3.43-.05-.36-.15-.69,.28-.93,3.23-1.77,6.36-3.73,9.85-4.99,1.03-.37,2.07-.66,3.14-.84,.55-.09,1.2-.18,1.07-.93-.14-.76-.81-.59-1.33-.5-2.25,.38-4.38,1.16-6.41,2.16-1.86,.93-3.68,1.96-5.51,2.95-.1,.05-.22,.08-.41,.15,.74-3.62,.71-7.26,1.26-10.84,.09-.56,.31-.83,.94-.78,1.5,.13,2.97,.08,4.19-1.01,.24-.21,.58-.1,.88-.11,2.94-.11,5.85,.31,8.76,.65,1.53,.18,3.06,.35,4.6,.48,.54,.05,.76,.2,.82,.79,.56,6.02,1.18,12.03,1.92,18.03,.82,6.66,1.63,13.31,2.45,19.97,.29,2.34,.58,4.68,.86,7.01,.02,.14-.03,.29-.05,.43h1.63c-.36-2.75-.74-5.5-1.09-8.26-.59-4.7-1.18-9.4-1.75-14.11-.53-4.4-1.04-8.81-1.52-13.22-.5-4.59-.98-9.18-1.39-13.78-.32-3.61-.56-7.22-.76-10.84-.24-4.25-.51-8.49-1.04-12.72-.44-3.5-.69-7.03-.95-10.55-.39-5.33-.74-10.66-1.07-16-.23-3.74-.4-7.48-.56-11.22-.33-7.45-.67-14.91-1.06-22.36-.34-6.43-.79-12.85-1.32-19.26-.3-3.64-.72-7.28-1.13-10.91-.08-.68,.13-1.1,.62-1.56,2.32-2.18,4.64-4.39,7.33-6.05,5.66-3.48,10.85-7.69,16.79-10.73,.62-.31,1.22-.46,1.9-.42,4.63,.23,9.12,1.07,13.34,3.05,.89,.41,1.47,.3,1.98-.52,.26-.43,.61-.81,1.04-1.37,.11,.96-.11,1.7-.19,2.45-.85,8.08,.14,15.91,3.05,23.5,.66,1.72,1.51,3.35,2.26,5.04,1.38,2.09,2.71,4.21,4.42,6.06,2.35,2.55,5.07,4.56,8.28,5.88,.34,.14,.68,.22,1.06,.21,6.6-.14,13.05,.99,19.5,2.17,.75,.14,.63,.59,.61,1.06-.28,5.29-.08,10.58-.15,15.86-.08,6.04,.78,11.97,1.88,17.89,2.11,11.29,5.22,22.33,7.93,33.47,.8,3.31,1.27,6.69,1.98,10.02,1.62,7.61,3.29,15.2,4.94,22.8,1.8,8.28,3.48,16.59,4.44,25.02,.35,3.12,.7,6.24,.6,9.39h1.63c-.26-.7-.13-1.43-.16-2.14Zm-23.11-143.94c6.13-.52,12.14-.49,18.27-1.07-2.36,4.56-5.48,8.28-9.34,11.49-2-4.31-5.6-7.14-8.93-10.42Zm-114.94-104.54c.17-.33,.4-.67,.76-.72,.42-.07,.44,.42,.61,.67,1.74,2.49,2.09,5.33,2.07,8.27,0,.68-.29,.76-.86,.57-2.18-.73-3.12-2.3-3.12-4.53,0-.39,0-.78,0-1.18-.05-1.06,.03-2.11,.53-3.08Zm48.23-46.27c-1.9,.12-3.79,.34-5.69,.43-5.01,.22-10.02,.34-15.03,.61-4.52,.24-9.03,.64-13.43,1.82-.52,.14-.62,.06-.6-.45,.03-.93,0-1.87,0-2.81h.15c0-.88,.04-1.75-.01-2.63-.03-.6,.22-.84,.76-1.01,3.34-1.11,6.78-1.72,10.25-2.17,5.31-.68,10.65-.87,15.99-1.08,2.32-.09,4.65-.16,6.97-.31,.66-.04,.8,.15,.83,.77,.09,2.02,.24,4.04,.42,6.05,.05,.54-.04,.75-.61,.78Zm62.95,59.04c.2,1.78,.32,3.55,0,5.33-.29,1.66-1.16,2.89-2.67,3.65-1.88,.94-3.82,1.68-5.97,1.6-3.25-.12-5.12-2.18-6.54-4.77-1.68-3.05-2.49-6.4-3.14-9.8-.39-2.02-.6-4.06-.57-6.41-.05-1.24,.14-2.73,.47-4.21,1.04-4.62,4.86-5.05,7.89-3.9,2.84,1.08,4.74,3.26,6.33,5.74,2.49,3.89,3.68,8.22,4.2,12.77Zm-9.36-24.93c-.3-.44-.71-.37-1.12-.14-1.26,.71-2.45,1.64-2.98,2.95-.68,1.69-2.03,2.11-3.52,2.53-.08-.45-.08-.91,.12-1.31,.99-1.97,2.07-3.89,3.58-5.52,.08-.09,.17-.17,.26-.26,1.9-1.8,3.33-1.49,4.33,.94,.92,2.25,1.11,4.61,1.17,7.18-1.63-1.04-3.27-1.79-5.25-1.92,.59-1.3,1.43-2.28,2.53-3.05,.17-.12,.36-.22,.53-.34,.36-.27,.66-.58,.34-1.06Zm5.38-28.56c1.28-.15,2.3,.54,3.38,1.03-1.13-.34-2.25-.69-3.38-1.03Zm18.24,15.93s.02-.07,.04-.08c.16-.05,.33-.11,.41,.12-.16,.12-.29-.05-.44-.04Zm10.81-.38c-2.89-.28-5.73-.83-8.54-1.55-.86-.22-1.66-.52-2.43-.95-3.3-1.88-6.68-3.65-9.89-5.69-.24-.15-.56-.21-.71-.66,1.82,.1,3.58,.2,5.34,.3,.21,.01,.42,.06,.63,.04,2.23-.2,4.15,.59,6.07,1.65,4.44,2.44,8.99,4.69,13.67,6.65,.13,.05,.25,.13,.48,.26-1.62,.29-3.13,.1-4.62-.04Zm-35.23-23.33c.26-.35,.64-.04,.92,.04,3.31,.95,6.55,2.09,9.75,3.37,7.78,3.1,15.36,6.64,22.53,10.99,3.39,2.06,6.69,4.24,9.44,7.15,.31,.33,.95,.73,.7,1.12-.32,.51-.93,.05-1.39-.12-5.5-2.05-10.68-4.79-15.88-7.5-.21-.11-.55-.15-.36-.57,.27-.59-.16-.87-.58-1.15-2.05-1.36-4.35-2.1-6.71-2.64-1.4-.32-2.7-.83-3.98-1.45-1.57-.76-3.19-1.42-4.9-2.17,.99-.2,1.89-.38,2.8-.57,.51-.1,1.1-.18,1.09-.86-.01-.62-.56-.68-1.05-.78-3.04-.63-6.11-.86-9.19-.57-2.33,.22-4.45-.62-6.86-.89,1.46-1.04,2.69-2.08,3.68-3.39Zm-18.62-37.98c3.52,1.32,6.18,3.7,8.32,6.71,2.65,3.72,4.17,7.95,5.38,12.3,1.59,5.71,2.54,11.56,3.85,17.33,.08,.36,0,.65-.21,.93-1.28,1.65-2.93,2.83-4.82,3.8-.45-3.25-.85-6.43-1.35-9.59-1.22-7.86-2.94-15.59-6.32-22.86-1.39-2.99-3.12-5.77-5.02-8.46l-.17-.24c.14-.07,.25-.05,.34,.09Zm-39.08-11.51c-2.22,.15-4.19,.29-6.19,.42,.89-1.36,3.86-1.6,6.19-.42Zm-8.86,2.66c.19-.38,.41-.64,.87-.67,3.86-.24,7.74-.88,11.57-.65,9.91,.59,19.57,2.34,28.57,6.93,4.29,2.19,6.91,5.71,9.1,9.76,3.52,6.53,5.5,13.56,6.83,20.81,.86,4.67,1.47,9.37,2.08,14.07,.09,.7-.1,.8-.73,.77-4.59-.21-9.15-.74-13.72-1.22-7.88-.83-15.76-1.6-23.69-1.34-1.33,.04-2.66,.14-3.97,.32-.85,.11-1.08-.15-1.13-.97-.21-3.5-.45-6.99-.73-10.49-.15-1.81-.52-3.58-1.31-5.25-.35-.74-.87-1.04-1.71-1.03-5.02,.05-10.04-.03-15.05,.33-.38,.03-.78,.15-.81-.5-.2-3.92-.74-7.82-.82-13.42,.07-5.07,1.69-11.43,4.65-17.46Zm-46.6,60.02c-.8,.24-.93,.05-.94-.73-.19-11.94,1.12-23.72,3.98-35.3,.68-2.76,2.42-5.05,4.22-7.23,4.34-5.22,9.96-8.64,16.1-11.28,6.78-2.92,13.88-4.67,21.17-5.74,.14-.02,.29-.02,.52-.03-.55,1.32-1.1,2.56-1.57,3.82-1.86,4.96-2.99,10.08-2.98,15.4,.01,3.51,.45,6.99,.72,10.49,.17,2.2,.2,2.18-1.93,2.51-3.17,.49-6.31,1.12-9.23,2.5-1.98,.94-3.76,2.16-4.45,4.39-.65,2.08-1.18,4.2-1.28,6.38-.09,2.17-.14,4.35-.14,6.53,0,.65-.22,.95-.81,1.19-4.68,1.91-9.56,3.17-14.41,4.55-2.99,.85-6,1.68-8.98,2.57Zm15.9,50.13c-.65-.23-1.12-.55-1.58-.88-6.09-4.44-10.2-10.06-10.59-17.88-.08-1.49-.05-2.96,.39-4.4,.84-2.68,2.87-4.18,5.89-1.95,2.57,1.9,3.84,4.48,4.27,7.56,.05,.39,.14,.77,.24,1.35-.69-.88-1.24-1.62-1.84-2.33-1.06-1.26-2.27-2.34-3.85-2.91-.98-.35-1.95-.37-2.9,.07-.38,.17-.65,.5-.44,.95,.17,.37,.52,.54,.91,.38,1.58-.64,2.72,.24,3.87,1.09,.26,.2,.5,.44,.72,.69,.35,.38,.8,.72,.99,1.17,.24,.61-.55,.69-.8,1.09-.66,1.02-.96,2.14-1.02,3.33-.03,.66,0,1.32,0,2.03-.45-.18-.87-.34-1.18,.1-.3,.42-.05,.79,.18,1.16,1.11,1.8,2.4,3.41,4.35,4.37,.35,.17,.73,.47,1.08,.44,1.37-.11,1.16,.82,1.17,1.63,.01,.96,.26,1.91,.15,2.96Zm35.79,44.47c4.61-.27,8.87-1.89,13.21-3.21,1.4-.43,2.81-.82,4.22-1.22l.09,.15c-.56,.62-1.09,1.27-1.68,1.86-2.35,2.35-4.61,4.78-6.67,7.38-.71,.9-1.81,.75-2.75,.93-3.41,.66-6.86,.98-10.34,.75-2.51-.17-4.94-.73-7.2-1.9-.52-.27-.67-.52-.23-1.02,1.38-1.56,2.77-3.11,4.23-4.6,.35-.36,.58-.37,1.06-.15,1.91,.91,3.94,1.15,6.06,1.02Zm-44.11,6.24c1.03-1.37,2.28-2.36,3.55-3.31,5.31-3.93,11.13-6.97,17.06-9.81,.08-.04,.17-.04,.26-.06,.95-.64,2.02-1.07,3.05-1.54,5.65-2.58,11.38-4.99,17.2-7.16,.56-.21,.75-.19,.84,.47,.34,2.34,.42,4.69,.12,7.04-.06,.49-.12,.98-.6,1.34-4.01,3-7.37,6.68-10.62,10.46-.35,.41-.72,.8-1.09,1.2-2.53,3.26-5.1,6.51-7.49,9.88-.23,.32-.38,.25-.64,.05-4.65-3.6-9.88-5.98-15.53-7.53-1.97-.54-3.99-.82-6.13-1.04Zm-9.94,68.66c-1.49-3.15-3.17-6.18-5.51-8.78-.47-.52-.24-.92-.06-1.39,3.12-7.74,6.22-15.49,9.37-23.23,.35-.87,.4-1.63,.06-2.51-.65-1.66-1.17-3.36-1.47-5.12q-.25-1.36,1.12-1.54,2.02-.27,1.8-2.29c-.02-.18,0-.36,0-.54-.45-2.93-.83-5.86-.74-8.84,.1-3.28,1.58-5.63,4.63-6.95,1.58-.69,3.22-1.18,5.08-1.53-.36,1.32-.66,2.53-1.02,3.72-2.21,7.29-3.25,14.79-4.16,22.32-.01,.12-.04,.24-.06,.36-.07,.97-.14,1.94-.21,2.91,.01,2.33-.23,4.64-.63,6.93-1.2,6.85-3.34,13.47-5.08,20.19-.7,2.71-1.39,5.43-2.13,8.32-.38-.77-.69-1.4-.99-2.04Zm-14.36,21.72c.66,1.32,1.29,2.67,1.13,4.22-.02,.16,.09,.34,.14,.5,.09,2.5-.6,4.8-1.99,6.84-1.02,1.51-2.62,1.92-4.38,1.86-.02-.38,.28-.49,.45-.67,1.31-1.34,2.6-2.7,3.77-4.17,.32-.4,.6-.84,.1-1.26-.52-.44-.89-.03-1.21,.35-1.35,1.63-2.8,3.17-4.29,4.68-.48,.49-.8,.45-1.27,.08-.66-.53-1.32-1.05-1.88-1.68-1.42-1.17-2.92-2.23-4.01-3.77-.45-.63-.49-1.2-.04-1.81,.21-.29,.38-.63,.64-.88,2.44-2.4,5.01-4.69,8.2-6.03,3.17-1.33,3.39-.78,4.65,1.73Zm-14.21,3.73c-.87,.94-1.07,1.08-2.23,.56-2.95-1.32-4.93-3.41-5.4-6.72-.08-.56-.06-1.06,.46-1.46,2.67-2.07,5.2-4.32,8.05-6.15,1.24-.8,2.55-1.47,4.02-1.8,.46-.1,.83-.03,1.22,.14,1.54,.69,2.39,1.98,2.98,3.48,.53,1.33,.78,2.72,.96,4.27,.09,.34-.13,.52-.58,.71-3.7,1.58-6.76,4.05-9.46,6.98Zm2.1-32.11c1.01-.57,2.07-.97,3.25-1,1.31-.03,2.38,.51,2.84,1.71,1.57,4.13,4.13,7.69,6.42,11.41,1.79,2.89-.27,6.78-3.59,7.01-.53,.04-.87-.07-1.13-.61-.68-1.43-1.76-2.52-3.23-3.15-.42-.18-.57-.4-.6-.86-.21-3.1-1.1-5.92-3.5-8.08-.3-.27-.29-.56-.24-.9,.24-1.64,.07-3.25-.47-4.81-.13-.37-.07-.54,.25-.72Zm2.3,12.74c.11,.5,.16,1.01,.28,1.78,.16,.46-.24,.65-.85,.83-1.93,.56-3.64,1.61-5.24,2.8-2.75,2.06-5.47,4.17-8.06,6.43-.42,.37-.77,.43-1.3,.25-2.9-.95-4.88-2.82-5.73-5.77-.39-1.36,.03-2.56,1.21-3.33,2.9-1.89,5.36-4.31,7.92-6.61,.85-.77,1.78-1.45,2.68-2.15,1.73-1.34,3.47-1.18,5.24-.19,2.33,1.29,3.3,3.5,3.84,5.96Zm-27.54-7.31c1.65-2.26,3-4.75,4.8-6.9,2.03-2.43,4.5-4.09,8.43-4.03,2.16,0,4.68,.79,6.99,2.29,2.81,1.82,3.87,4.49,3.89,7.71,0,.6-.13,.81-.77,.55-2.03-.82-3.9-.57-5.71,.74-2.31,1.67-4.31,3.68-6.44,5.55-1,.88-2.02,1.73-3.12,2.47-.32,.22-.63,.33-1.01,.25-2.91-.65-5.36-2.02-7.02-4.57-.86-1.31-1.13-2.58-.05-4.06Zm8.33,37.82c-4.07-3.75-8.04-7.59-10.71-12.55-.17-.32-.37-.64-.43-.99-.55-3.16-1.9-6.04-3.13-8.96-.18-.42-.3-.86-.52-1.26-1.09-2-.67-3.85,.41-5.72,1.11-1.92,2.5-3.61,3.94-5.37,1.41,3.56,4.1,5.55,7.51,6.7,.63,.21,.55,.37,.15,.73-1.53,1.37-3.09,2.71-4.77,3.89-.15,.1-.31,.19-.45,.31-.38,.32-.97,.62-.5,1.23,.41,.53,.89,.24,1.36-.05,1.32-.85,2.5-1.89,3.79-2.89,.72,3.95,3.05,6.47,6.82,7.89-.86,.81-1.69,1.58-2.52,2.35-.27,.25-.55,.47-.79,.74-.29,.32-.56,.73-.17,1.12,.39,.38,.84,.26,1.21-.09,1.02-.94,2.04-1.89,3.06-2.83,1.28-1.2,1.29-1.2,1.86,.41,1,2.86,2.97,4.78,5.68,6.01,.16,.07,.31,.16,.54,.27-1.09,1.04-2.07,2.09-3.27,2.92-.45,.31-1.02,.64-.57,1.28,.46,.65,.99,.19,1.41-.11,1.18-.81,2.19-1.81,3.2-2.8,.45-.44,.66-.43,.96,.16,.89,1.75,2.47,2.87,3.91,4.1,.99,.84,1.85,1.82,2.98,2.54-.47,.61-1.07,1.02-1.59,1.52-.35,.34-.75,.74-.31,1.24,.44,.5,.92,.3,1.33-.11,.13-.13,.26-.25,.39-.37,.91-.87,1.74-1.49,3.26-1.32,3.08,.34,5.27-1.28,6.51-4.28,.18-.44,.36-.89,.58-1.45,1.14,2.36,1.41,4.7,.95,7.13-1.14,6.07-7.44,11.41-13.61,11.52-2.99,.05-5.58-.97-7.68-3.09-3.42-3.47-7.24-6.49-10.82-9.78Zm26.5,26.11c-2.35,.35-4.13-.54-5.54-2.41-1.63-2.17-3.13-4.46-5.16-6.29-1.48-1.33-3.18-2.4-4.62-3.79-.81-.79-1.43-1.67-1.69-3.08,2.29,2.4,4.95,3.47,7.93,3.88,4.2,.02,7.88-1.38,10.99-4.16,3.42-3.06,5.46-6.8,5.36-11.51-.04-2.16-.66-4.16-1.75-6.01-.33-.56-.44-1.08-.19-1.75,.93,.54,1.58,1.29,2.17,2.08,.92,1.24,1.75,2.53,2.66,3.78,.27,.37,.23,.73,.15,1.11-1.98,8.8-3.97,17.61-5.95,26.41-.09,.38-.22,.67-.61,.82-1.21,.48-2.41,.96-3.75,.94Zm1,1.47c.93-.3,1.82-.41,2.82-.89-.26,1.16-.49,2.13-.75,3.27-.74-.85-1.37-1.58-2.07-2.38Zm-4.51,46.94c-.14-.4-.14-.62,.05-.83-.01,.22-.02,.45-.05,.83Zm24.38-96.02c-4.54,14.33-8.58,28.79-11.83,43.48-2.1,9.49-4.25,19-7.27,28.24-1.77,5.4-2.6,10.98-3.78,16.49-.06,.27-.13,.53-.19,.79-.28,2.06-.66,4.1-1.24,6.11,.12-2.06,.58-4.07,.96-6.1,1.43-9.62,3.04-19.21,5.09-28.73,1.78-8.23,3.75-16.42,5.57-24.64,3.38-15.23,6.84-30.43,10.46-45.61,2.09-8.76,4.63-17.4,6.81-26.14,1.04-4.2,1.65-8.46,1.82-12.8,.17-4.53,1.02-8.99,1.67-13.47,.84-5.75,2.75-11.24,4.06-16.88,.18-.76,1.71-1.49,2.52-1.21,3.95,1.4,7.69,3.22,11.13,5.63,.45,.32,.73,.79,1.21,1.08,1.43,.85,3.04,.9,4.61,1.12,1.94,.28,3.91,.29,5.81,.88,1.29,.41,1.32,.46,1.14,1.76-.43,3.05-1.62,5.87-2.7,8.71-.73,1.92-1.49,3.83-2.01,5.81-.15,.57-.38,.61-.89,.5-4.05-.82-8.16-.86-12.28-.83-.7,0-1.02,.34-1.25,.95-3.96,10.6-7.89,21.21-11.61,31.91-2.65,7.62-5.35,15.22-7.79,22.91Zm12.3,52.18c.02,.52-.12,.75-.67,.81-1.68,.19-3.34,.46-5.02,.63-1.38,.15-1.69-.25-1.61-1.95,.1-3.83,.21-7.66,.3-11.49,.02-.82,.29-1.35,1.17-1.65,1.83-.61,3.71-1.04,5.58-1.52,.62-.16,.91,.06,.81,.74-.47,3.44-.47,6.91-.7,10.36-.09,1.36,.1,2.71,.14,4.06Zm14.13,26.96c-.06,.4-.15,.73-.55,.96-3.07,1.81-6.12,3.64-9.19,5.45-.1,.06-.21,.08-.36,.14,.17-1.95,.36-3.84,.49-5.73,.12-1.82,.04-3.62-.68-5.34-.15-.36-.22-.69,.36-.78,3.03-.46,5.76-1.75,8.44-3.15,1.85-.97,1.88-.96,1.94,1.13,.07,2.45-.08,4.89-.46,7.31Zm.96-12.74c-.22,1.01-.62,1.72-1.61,2.2-2.5,1.21-4.92,2.59-7.61,3.35-.41,.11-.8,.27-1.27,.24-.12-.88,.12-1.73,.15-2.6,.15-3.38,.19-6.76-.03-10.14-.1-1.55,.5-2.89,1-4.28,.11-.31,.32-.38,.63-.39,3.38-.06,6.75,.17,10.16,.36-.67,3.76-.61,7.56-1.42,11.26Zm8.96-30.12c-.33,4.04,.15,8.09-.29,12.13-.14,1.3-.39,2.56-1.06,3.7-.64,1.08-1.57,1.61-2.84,1.59-5.47-.07-10.92-.52-16.39-.38-1.45,.04-2.05-.62-2.02-1.8,.01-.4,.2-.6,.48-.8,1.31-.97,2.61-1.95,3.92-2.93,1.16-.87,2.25-1.83,3.22-2.91,.72-.79,.71-1.11-.12-1.76-2.05-1.59-4.09-3.2-6.17-4.75-.52-.39-.81-.77-.57-1.42-.17-.85,.16-1.23,1.03-1.4,4.38-.84,8.79-1.16,13.24-.87,2.26,.15,4.51,.32,6.76,.63,.53,.07,1.07,.19,.83,.96Zm12.61,2.37c.16,2.53,.33,5.05,.52,7.57,.16,2.16,.32,4.33,.53,6.48,.07,.73-.05,1.14-.63,.97-3.07-.36-5.89-.67-8.69-1.04-1.15-.15-2.29-.09-3.43-.11-.56,0-.68-.15-.47-.69,.75-1.88,.92-3.86,.94-5.85,.03-2.87,0-5.74,0-8.6,0-1.14,.11-1.27,1.25-1.09,2.29,.34,4.57,.72,6.86,1.09,.83,.14,1.64,.37,2.48,.48,.51,.07,.63,.33,.66,.78Zm1.84-109.56c-2.84,2.1-5.57,4.34-8.12,6.79-.66,.64-.84,1.24-.7,2.15,.34,2.35,.58,4.72,.79,7.09,.38,4.23,.73,8.46,1.07,12.69,.15,1.89,.28,3.79,.37,5.68,.21,4.13,.37,8.25,.59,12.38,.21,3.91,.41,7.83,.55,11.75,.13,3.89,.31,7.77,.55,11.65,.19,3.13,.34,6.26,.54,9.39,.28,4.33,.7,8.64,1.02,12.97,.27,3.72,.71,7.43,1.11,11.14,.13,1.02,.25,2.03,.21,3.06-.01,.42-.1,.59-.59,.48-2.85-.63-5.73-1.14-8.62-1.43-1.45-.15-2.7-.82-4.09-1.02-1.58-.22-3.16-.37-4.75-.53-2.47-.25-4.95-.27-7.42-.17-3.13,.13-6.24,.47-9.28,1.25-.12,.03-.26,.04-.34,.12-1.3,1.38-3.19,1.09-4.78,1.64-1.67,.58-3.44,.88-4.94,1.91-.31,.22-.53,0-.73-.15-1.86-1.32-3.1-3.09-3.84-5.24-.12-.34-.14-.6,.14-.89,1.08-1.12,1.74-2.52,2.53-3.84,.37-.62,.29-1.31,.19-1.95-.59-3.94-.91-7.9-.89-11.88,.02-3.99,.03-7.98,.02-11.97,0-2.03,.69-3.9,1.28-5.79,2.91-9.24,6.31-18.31,9.48-27.45,2.62-7.55,5.53-14.99,8.29-22.48,.19-.52,.47-.75,1.05-.75,4.05-.04,8.08,.14,12.04,.99,.93,.2,1.23-.22,1.41-.93,.51-2.05,1.24-4.03,2.01-5.99,.03-.08,.1-.15,.15-.22,.65-1.85,1.34-3.68,1.94-5.55,.55-1.69,.99-3.41,.99-5.22,0-.67-.24-1.05-.83-1.34-1.75-.83-3.62-1.1-5.51-1.31-1.17-.13-2.33-.25-3.5-.38-.55-.06-.76-.24-.36-.79,2.2-2.99,4.45-5.94,6.78-8.82,.39-.48,.67-.6,1.26-.27,2.65,1.48,5.54,2.09,8.56,2.3,3.28,.23,6.48-.19,9.69-.72,.32-.05,.64-.12,1.03,.03-1.27,1.82-2.49,3.65-3.51,5.59-.8,1.52-1.55,3.07-2.02,4.73-.16,.55-.41,.95-.88,1.3Z"/>
            <path class="cls-3" d="M188.02,241.51c-.15,2.13-.31,4.25-.46,6.38-.03,.45-.06,.9-.09,1.35-.03,.5,.1,.95,.67,.98,.57,.03,.74-.4,.78-.9,.12-1.71,.24-3.42,.37-5.13,.02-.29-.04-.61,.15-.87-.03-1.49,.32-2.93,.49-4.4,.05-.41,.2-.54,.61-.57,2.24-.17,4.39-.71,6.42-1.67,.64-.36,1.29-.66,1.95-.93,.04-.15,.25-.29,.66-.56,2.77-1.84,4.88-4.3,6.5-7.18,.69-1.22,.81-2.57,.89-3.93-.19-2.62-1.14-4.89-2.94-6.84-2.9-3.15-6.47-3.72-10.44-2.84-2.47,.55-4.59,1.8-6.56,3.33-.19,.15-.34,.24-.47,.26-.44,.36-.93,.62-1.47,.83,0,.02,.01,.04,.02,.06,.14,.34-.2,.47-.39,.64-1.35,1.22-2.57,2.55-3.37,4.22-1.45,3.03-1.56,9.17,1.58,12.47,1.26,1.32,2.7,1.95,4.46,2.05,1.15,.07,1.16,.1,1,1.21-.1,.68-.24,1.36-.36,2.04Zm-2.13-4.98c-1.65-.46-2.52-1.9-3.23-3.35-.38-.78-.65-1.63-.68-2.52-.04-.03-.04-.06-.03-.1-.18-.39-.13-.8-.11-1.2-.19-2.73,.39-5.24,2.34-7.26,2.69-2.77,5.66-5.16,9.48-6.23,4.83-1.35,9.03,.57,11.08,5.04,.18,.39,.34,.77,.36,1.2,.62,2.03,.49,4-.66,5.82-2.89,4.6-6.85,7.72-12.3,8.75-2.11,.4-4.23,.4-6.28-.16Z"/>
            <path class="cls-3" d="M229.08,128.31c-.1-.02-.09-.09-.06-.16l.18,.09s-.09,.08-.13,.07Z"/>
            <path class="cls-3" d="M226.55,147l-.14,.08s.09,.09,.14,.1c.03,0,.08-.06,.12-.09l-.12-.09Z"/>
            <path class="cls-2" d="M250.66,154.65c-.62,6.8-2.58,13.54-8.08,18.82-2.2,2.11-4.41,2.18-6.75,.2-2.36-2.01-3.51-4.67-3.87-7.66-.7-5.71,.46-11.11,3.04-16.22,.59-1.16,1.36-2.2,2.21-3.2,1.39-1.63,3.12-2.3,5.25-1.97,2.01,.32,3.82,1.08,5.42,2.34,2.34,1.84,2.69,4.45,2.79,7.68Z"/>
            <path class="cls-2" d="M195.42,155.26c-.05-1.24,.14-2.73,.47-4.21,1.04-4.62,4.86-5.05,7.89-3.9,2.84,1.08,4.74,3.26,6.33,5.74,2.49,3.89,3.68,8.22,4.2,12.77,.2,1.78,.32,3.55,0,5.33-.29,1.66-1.16,2.89-2.67,3.65-1.88,.94-3.82,1.68-5.97,1.6-3.25-.12-5.12-2.18-6.54-4.77-1.68-3.05-2.49-6.4-3.14-9.8-.39-2.02-.6-4.06-.57-6.41Z"/>
            <path class="cls-2" d="M280.72,177.47c.2,1.34-.35,2.44-1.3,3.31-2.8,2.57-5.48,5.3-8.81,7.22-1.9,1.09-3.9,1.9-6.06,2.31-3.11,.6-5.54-1.59-5.41-4.72,.34-8.48,7.35-15.39,14.15-17.23,.82-.22,1.55,.03,2.26,.36,1.98,.91,3.14,2.6,4.06,4.47,.65,1.33,1.08,2.75,1.11,4.28Z"/>
            <path class="cls-1" d="M205.12,222.12c.62,2.03,.49,4-.66,5.82-2.89,4.6-6.85,7.72-12.3,8.75-2.11,.4-4.23,.4-6.28-.16-1.65-.46-2.52-1.9-3.23-3.35-.38-.78-.65-1.63-.68-2.52,1.09-1.3,2.41-2.34,3.7-3.42,3.2-2.67,6.69-4.8,10.72-5.97,1.94-.56,3.91-.56,5.89-.27,1.04,.15,1.88,.77,2.82,1.13Z"/>
            <path class="cls-2" d="M205.12,222.12c-.95-.36-1.78-.97-2.82-1.13-1.99-.29-3.95-.29-5.89,.27-4.03,1.17-7.52,3.3-10.72,5.97-1.29,1.08-2.61,2.13-3.7,3.42-.04-.03-.04-.06-.02-.1,.05-.41,.2-.83-.11-1.2-.19-2.73,.39-5.24,2.34-7.26,2.69-2.77,5.66-5.16,9.48-6.23,4.83-1.35,9.03,.57,11.08,5.04,.18,.39,.34,.77,.36,1.2Z"/>
          </g>
        </g>
      </g>
    </g>
  </g>
</svg>