<?xml version="1.0" encoding="UTF-8"?>
<svg xmlns="http://www.w3.org/2000/svg" viewBox="0 0 1920 1080">
  <defs>
    <style>
      .cls-1 {
        fill: #fada20;
      }

      .cls-2 {
        fill: #f6931f;
      }

      .cls-3 {
        fill: #fbe126;
      }

      .cls-4 {
        fill: #f6941f;
      }

      .cls-5 {
        fill: #fadb20;
      }

      .cls-6 {
        fill: #fefefe;
      }
    </style>
  </defs>
  <g id="Capa_1" data-name="Capa 1"/>
  <g id="Capa_2" data-name="Capa 2">
    <g id="Capa_1-2" data-name="Capa 1">
      <g>
        <g>
          <path class="cls-1" d="M1919.95,1063.48c0,4.99-.05,9.99,.03,14.98,.02,1.25-.28,1.54-1.53,1.53-8.16-.06-16.33-.03-24.49-.03h-170.43c-7.28-5.9-14.53-11.83-21.87-17.66-1.61-1.28-1.46-1.92,.22-2.92,14.74-8.85,29.46-17.75,44.17-26.64,10.59-6.4,21.16-12.85,31.77-19.22,1.8-1.08,1.83-1.6-.08-2.68-8.89-5.03-17.71-10.18-26.54-15.32-10.48-6.09-20.95-12.22-31.44-18.31-11.35-6.58-22.72-13.13-34.08-19.7-11-6.36-22.01-12.72-33.01-19.09-4.8-2.78-9.59-5.57-14.71-8.54,26.35-15.95,52.42-31.73,78.78-47.69-57.43-40.42-114.5-80.58-171.56-120.74l.33-.57c1.56,.18,2.83,1.15,4.22,1.77,14.34,6.4,28.67,12.8,42.99,19.24,10.84,4.87,21.64,9.81,32.48,14.69,14.7,6.62,29.41,13.19,44.11,19.81,11.14,5.02,22.24,10.11,33.38,15.13,16.14,7.27,32.3,14.47,48.44,21.74,5.75,2.59,11.36,5.49,17.18,7.9,11.36,4.71,22.43,10.08,33.7,15,1.43,.62,1.5,1.04,.27,2.13-7.08,6.28-14.13,12.6-21.09,19.02-6.89,6.35-13.94,12.52-21.09,18.57-.98,.83-1.08,1.41,.25,1.88,2.26,.81,4.5,1.7,6.79,2.43,11.36,3.64,22.6,7.64,33.84,11.65,11.33,4.04,22.72,7.91,34.09,11.84,11.6,4.01,23.23,7.96,34.82,11.99,9.71,3.37,19.4,6.82,29.11,10.2,6.98,2.43,13.97,4.81,20.95,7.22v67.43c-5.03,4.44-10.05,8.89-15.09,13.33-1.23,1.08-.82,1.72,.45,2.37,2.74,1.39,5.41,2.92,8.16,4.3,2.12,1.06,3.92,2.86,6.48,2.99Z"/>
          <path class="cls-2" d="M1919.95,973.08c-6.98-2.4-13.98-4.79-20.95-7.22-9.71-3.38-19.39-6.83-29.11-10.2-11.6-4.02-23.22-7.98-34.82-11.99-11.37-3.93-22.76-7.8-34.09-11.84-11.24-4-22.48-8-33.84-11.65-2.29-.73-4.53-1.62-6.79-2.43-1.33-.47-1.23-1.05-.25-1.88,7.15-6.05,14.2-12.21,21.09-18.57,6.96-6.42,14.01-12.74,21.09-19.02,1.23-1.09,1.16-1.51-.27-2.13-11.27-4.91-22.33-10.29-33.7-15-5.82-2.41-11.43-5.31-17.18-7.9-16.14-7.27-32.3-14.48-48.44-21.74-11.14-5.02-22.24-10.11-33.38-15.13-14.69-6.62-29.41-13.19-44.11-19.81-10.83-4.88-21.64-9.82-32.48-14.69-14.32-6.44-28.65-12.84-42.99-19.24-1.39-.62-2.67-1.59-4.22-1.77l-.33,.57c57.06,40.16,114.13,80.32,171.56,120.74-26.36,15.95-52.43,31.74-78.78,47.69,5.12,2.97,9.91,5.76,14.71,8.54,11,6.37,22,12.73,33.01,19.09,11.36,6.57,22.73,13.11,34.08,19.7,10.49,6.08,20.95,12.21,31.44,18.31,8.83,5.13,17.65,10.29,26.54,15.32,1.91,1.08,1.88,1.59,.08,2.68-10.61,6.37-21.18,12.82-31.77,19.22-14.71,8.9-29.43,17.8-44.17,26.64-1.67,1-1.82,1.64-.22,2.92,7.33,5.83,14.59,11.77,21.87,17.66h-9c-3.43-3.75-7.72-6.47-11.64-9.63-8.1-6.53-16.28-12.96-24.49-19.36-1.57-1.23-1.63-1.78,.2-2.84,24.74-14.4,49.44-28.87,74.15-43.33,.77-.45,1.52-.93,2.63-1.61-46.42-26.62-92.02-53.93-139.48-79.31,26.32-17.41,52.2-34.54,78.35-51.84-6.08-4.28-11.91-8.38-17.74-12.48-42.27-29.74-84.53-59.51-126.83-89.22-14.1-9.9-28.01-20.07-42.57-29.3-.67-.42-2.08-.67-1.64-1.7,.56-1.31,1.79-1.01,2.99-.48,13.95,6.1,28.05,11.84,42.21,17.43,37.29,14.72,74.99,28.35,112.65,42.06,45.41,16.53,90.87,32.93,135.52,51.45,9.75,4.05,19.42,8.3,29.04,12.42,0,1.06-.73,1.3-1.22,1.68-16.02,12.53-30.76,26.52-45.89,40.06-1.95,1.74-1.92,1.77,.62,2.63,34.64,11.83,69.82,21.92,104.98,32.03,10.31,2.96,20.61,5.96,30.92,8.91,.87,.25,1.7,.74,2.66,.56v24.97Z"/>
          <path class="cls-2" d="M1919.95,1063.48c-2.56-.13-4.35-1.92-6.48-2.99-2.75-1.38-5.42-2.9-8.16-4.3-1.27-.65-1.68-1.29-.45-2.37,5.04-4.43,10.06-8.88,15.09-13.33v22.97Z"/>
        </g>
        <g>
          <path class="cls-5" d="M1919.95,103.44v55.94c-1.6,.66-3.22,1.31-4.81,2-11.73,5.07-23.47,10.13-35.19,15.24-9.96,4.34-19.89,8.76-29.83,13.14-13.76,6.05-27.51,12.11-41.27,18.15-11.03,4.84-22.09,9.62-33.12,14.45-4.69,2.05-9.35,4.16-14.24,6.33,1.72,1.52,3.15,2.97,4.77,4.18,5.9,4.42,11.87,8.76,17.67,13.32,7.31,5.74,14.75,11.31,22.14,16.94,1.28,.98,1.91,1.73-.13,2.74-3.79,1.89-7.46,4.02-11.18,6.05-15.01,8.23-30,16.5-45.03,24.7-10.28,5.6-20.54,11.26-30.88,16.76-13.79,7.33-27.33,15.12-41.02,22.64-11.43,6.28-22.94,12.44-34.38,18.71-14.79,8.1-29.56,16.26-44.34,24.37-10.63,5.83-21.28,11.64-31.93,17.44-1.22,.67-2.48,1.26-4.2,2.13,.4-.79,.46-1.06,.63-1.2,6.12-5.09,12.24-10.17,18.37-15.24,7.34-6.08,14.69-12.14,22.04-18.21,7.22-5.96,14.45-11.92,21.68-17.88,6.85-5.64,13.73-11.23,20.55-16.89,7.53-6.25,14.98-12.59,22.52-18.83,7.92-6.55,15.93-13,23.86-19.54,9.27-7.65,18.49-15.37,27.75-23.02,2.03-1.67,2.09-1.62-.31-2.82-19.38-9.77-38.77-19.54-58.16-29.3-6.68-3.36-13.38-6.71-20.03-10.04,.13-.74,.69-.84,1.09-1.12,7.42-5.18,14.81-10.4,22.27-15.53,24.56-16.89,49.14-33.75,73.71-50.62,11.09-7.62,22.16-15.27,33.29-22.83,1.69-1.15,1.96-1.67-.08-2.67-6.84-3.39-13.59-6.93-20.41-10.36-19.24-9.69-38.47-19.39-57.75-29-1.71-.85-1.49-1.44-.36-2.43,1-.87,2.07-1.67,3.01-2.6,5.85-5.79,11.99-11.28,17.92-16.97,9.24-8.86,18.59-17.6,27.92-26.37,8.48-7.97,16.81-16.09,25.26-24.1,3.67-3.49,7.5-6.82,11.18-10.29,3.74-3.53,7.39-7.16,11.08-10.75,42.65,0,85.3,.01,127.95-.05,1.71,0,2.05,.33,2.05,2.05-.08,20.98-.05,41.95-.05,62.93-8.77,5.51-17.54,11.03-26.32,16.53-1.18,.74-1.24,1.18-.02,2.1,5.75,4.35,11.38,8.86,17.13,13.21,3.01,2.28,5.7,5.04,9.21,6.62Z"/>
          <path class="cls-4" d="M1790,.05c-3.69,3.59-7.34,7.21-11.08,10.75-3.68,3.48-7.51,6.81-11.18,10.29-8.44,8.01-16.78,16.14-25.26,24.1-9.33,8.77-18.68,17.51-27.92,26.37-5.94,5.69-12.08,11.18-17.92,16.97-.94,.93-2.01,1.73-3.01,2.6-1.14,.99-1.36,1.57,.36,2.43,19.28,9.61,38.52,19.3,57.75,29,6.81,3.43,13.57,6.98,20.41,10.36,2.03,1.01,1.76,1.53,.08,2.67-11.13,7.56-22.2,15.21-33.29,22.83-24.57,16.87-49.15,33.73-73.71,50.62-7.45,5.13-14.85,10.35-22.27,15.53-.39,.28-.95,.38-1.09,1.12,6.65,3.33,13.34,6.68,20.03,10.04,19.39,9.76,38.77,19.53,58.16,29.3,2.4,1.21,2.34,1.15,.31,2.82-9.27,7.65-18.48,15.37-27.75,23.02-7.93,6.54-15.94,12.99-23.86,19.54-7.54,6.24-14.99,12.58-22.52,18.83-6.82,5.66-13.7,11.26-20.55,16.89-7.23,5.95-14.45,11.91-21.68,17.88-7.35,6.07-14.7,12.14-22.04,18.21-6.13,5.07-12.25,10.15-18.37,15.24-.17,.14-.22,.41-.63,1.2,1.72-.87,2.98-1.47,4.2-2.13,10.65-5.81,21.3-11.61,31.93-17.44,14.79-8.11,29.55-16.27,44.34-24.37,11.45-6.26,22.95-12.42,34.38-18.71,13.69-7.52,27.23-15.31,41.02-22.64,10.34-5.5,20.59-11.15,30.88-16.76,15.03-8.19,30.02-16.46,45.03-24.7,3.72-2.04,7.39-4.17,11.18-6.05,2.04-1.02,1.41-1.77,.13-2.74-7.39-5.64-14.83-11.2-22.14-16.94-5.8-4.56-11.77-8.9-17.67-13.32-1.62-1.21-3.05-2.67-4.77-4.18,4.89-2.17,9.55-4.28,14.24-6.33,11.03-4.83,22.09-9.62,33.12-14.45,13.77-6.03,27.52-12.09,41.27-18.15,9.94-4.38,19.87-8.79,29.83-13.14,11.71-5.11,23.45-10.17,35.19-15.24,1.59-.69,3.21-1.33,4.81-2v25.47c-6.07,1.78-11.88,4.27-17.79,6.48-22.98,8.59-45.94,17.24-68.87,25.98-16.94,6.46-33.74,13.26-50.36,20.49-.38,.16-.75,.35-1.5,.72,17.16,13.01,33.58,26.59,51.89,38.42-4.84,2.6-9.25,5.02-13.7,7.36-38.17,20-77.29,38.06-116.48,55.95-48.93,22.34-98.13,44.13-146.31,68.07-11.17,5.55-22.15,11.47-33.24,17.18-.98,.51-1.89,1.5-3.18,.98,60.74-48.67,120.09-99.04,180.75-148.54-26.99-14.99-53.68-29.81-80.83-44.89,44.5-28.39,87.12-58.68,130.68-88.34-6.47-3.15-12.5-6.09-18.54-9.02-18.56-9-37.11-18.01-55.7-26.97-1.62-.78-2.13-1.34-.95-3.06,2.37-3.41,4.52-6.98,6.67-10.53,1.09-1.81,2.43-3.34,3.96-4.77,32.35-30.11,64.99-59.9,97.05-90.31h6.5Z"/>
          <path class="cls-4" d="M1919.95,103.44c-3.52-1.58-6.2-4.34-9.21-6.62-5.75-4.35-11.38-8.86-17.13-13.21-1.22-.92-1.16-1.37,.02-2.1,8.78-5.5,17.55-11.02,26.32-16.53v28.97c-3.42,1.74-3.43,1.86-.24,3.95,.06,.04,.16,.03,.24,.05v5.49Z"/>
          <path class="cls-6" d="M1919.95,97.94c-.08-.02-.18,0-.24-.05-3.19-2.09-3.18-2.21,.24-3.95v4Z"/>
        </g>
        <g>
          <path class="cls-3" d="M1919.95,521.53v189.79c-7.48-.11-14.79-1.74-22.19-2.63-14.13-1.69-28.2-3.88-42.31-5.82-12.38-1.7-24.76-3.4-37.16-4.97-2.15-.27-2.09-1.1-1.32-2.58,2.15-4.13,4.31-8.25,6.45-12.39,3.21-6.2,6.36-12.43,9.61-18.61,7.92-15.08,15.86-30.15,23.83-45.21,1.02-1.92,.28-2.28-1.53-2.2-4.98,.21-9.96,.08-14.95,.38-8.38,.5-16.79,.02-25.19,.54-8.29,.51-16.62-.1-24.94,.47-8.2,.56-16.45-.06-24.69,.51-8.12,.55-16.29,.27-24.43,.42-13.39,.24-26.78,.67-40.17,.66-.68,0-1.46,.26-2.2-.4,4.56-8.73,9.09-17.41,13.61-26.1,2.15-4.12,4.27-8.26,6.43-12.38,6.71-12.81,13.43-25.61,20.17-38.41,.76-1.45,.55-2.04-1.23-2.12-9.36-.44-18.69-1.29-28.03-1.89-9.76-.63-19.51-1.38-29.26-2.01-9.76-.63-19.51-1.34-29.27-2.01-9.92-.68-19.84-1.35-29.76-2.02-7.19-.48-14.38-1.02-21.57-1.51-9.42-.64-18.84-1.23-28.26-2-8.67-.71-17.4-.83-26.05-1.69-3.61-.36-7.35,.26-11.16-1.22,2.45-.22,4.6-.35,6.72-.62,10.17-1.29,20.33-2.66,30.5-3.93,12.31-1.54,24.62-3.04,36.93-4.5,10.35-1.23,20.72-2.32,31.06-3.59,11.49-1.41,22.96-2.99,34.45-4.4,11.48-1.41,22.98-2.7,34.46-4.06,11.18-1.33,22.35-2.67,33.52-4.03,13.38-1.64,26.76-3.3,40.14-4.96,8.54-1.06,17.08-2.04,25.6-3.23,1.97-.27,1.69,.38,1.29,1.67-4.62,14.98-8.85,30.08-13.78,44.96-.97,2.91-1.71,5.9-2.65,9.18,.87-.27,1.25-.43,1.65-.51,17.34-3.67,34.68-7.33,52.02-11.01,10.29-2.18,20.57-4.4,30.85-6.57,14.26-3.02,28.52-6.01,42.77-9.01Z"/>
          <path class="cls-4" d="M1919.95,521.53c-14.26,3-28.52,6-42.77,9.01-10.29,2.18-20.57,4.39-30.85,6.57-17.34,3.68-34.68,7.34-52.02,11.01-.4,.08-.78,.24-1.65,.51,.94-3.28,1.68-6.27,2.65-9.18,4.94-14.88,9.16-29.98,13.78-44.96,.4-1.3,.68-1.95-1.29-1.67-8.52,1.18-17.06,2.17-25.6,3.23-13.38,1.65-26.76,3.32-40.14,4.96-11.17,1.37-22.35,2.71-33.52,4.03-11.49,1.36-22.98,2.65-34.46,4.06-11.49,1.41-22.96,3-34.45,4.4-10.35,1.27-20.71,2.36-31.06,3.59-12.31,1.46-24.63,2.96-36.93,4.5-10.17,1.27-20.33,2.64-30.5,3.93-2.13,.27-4.28,.4-6.72,.62,3.81,1.48,7.56,.86,11.16,1.22,8.65,.86,17.38,.98,26.05,1.69,9.41,.77,18.84,1.36,28.26,2,7.19,.49,14.38,1.02,21.57,1.51,9.92,.67,19.84,1.34,29.76,2.02,9.76,.67,19.51,1.38,29.27,2.01,9.75,.63,19.5,1.38,29.26,2.01,9.34,.6,18.67,1.46,28.03,1.89,1.78,.08,1.99,.68,1.23,2.12-6.74,12.8-13.46,25.6-20.17,38.41-2.16,4.12-4.28,8.25-6.43,12.38-4.53,8.68-9.06,17.36-13.61,26.1,.75,.66,1.52,.4,2.2,.4,13.39,0,26.78-.42,40.17-.66,8.14-.15,16.31,.13,24.43-.42,8.24-.56,16.48,.06,24.69-.51,8.32-.57,16.64,.03,24.94-.47,8.4-.52,16.81-.04,25.19-.54,4.99-.3,9.97-.16,14.95-.38,1.81-.08,2.54,.28,1.53,2.2-7.97,15.06-15.92,30.12-23.83,45.21-3.24,6.18-6.4,12.41-9.61,18.61-2.14,4.14-4.3,8.26-6.45,12.39-.77,1.48-.83,2.3,1.32,2.58,12.4,1.57,24.78,3.27,37.16,4.97,14.1,1.94,28.17,4.13,42.31,5.82,7.39,.89,14.7,2.52,22.19,2.63v4.99c-11.63-1.5-23.26-3.02-34.9-4.5-15.1-1.93-30.2-3.82-45.3-5.73-9.9-1.25-19.8-2.54-29.7-3.74-3.89-.47-7.19-2.51-10.76-3.84-2.08-.78-5.3-1.04-5.83-2.76-.57-1.85,1.7-4.07,2.8-6.09,12-22.15,24.02-44.29,36.04-66.43,.15-.28,.24-.6,.45-1.16-4.32,0-8.5-.07-12.67,.01-14.98,.28-29.97,.56-44.95,.91-24.39,.58-48.78,.87-73.16,2-7.4,.34-14.81,.6-22.21,.98-1.95,.1-2.52-.12-1.53-2.19,9.4-19.74,18.72-39.51,28.06-59.28,2.98-6.31,5.91-12.66,8.98-18.93,.85-1.74,.43-1.98-1.31-2.1-23.58-1.58-47.16-3.25-70.74-4.86-15.86-1.08-31.73-2.09-47.59-3.18-22.83-1.57-45.67-3.16-68.49-4.81-13.87-1-27.77-1.35-41.65-2.07-.91-.05-1.83-.1-2.77-.41,4.84-.67,9.67-1.36,14.51-2.01,18.22-2.45,36.35-5.47,54.45-8.66,28.75-5.07,57.39-10.7,86.03-16.34,29.61-5.83,59.21-11.69,88.85-17.33,27.04-5.15,54.18-9.74,81.44-13.59,4.76-.67,9.54-1.19,14.84-1.84-7.83,20.03-13.19,40.31-19.53,60.8,8.08-1.85,15.68-3.53,23.26-5.33,30.82-7.32,61.36-15.7,91.94-23.97,.48-.13,.97-.21,1.46-.31v21.98Z"/>
        </g>
      </g>
      <g>
        <g>
          <path class="cls-1" d="M.05,1063.48c0,4.99,.05,9.99-.03,14.98-.02,1.25,.28,1.54,1.53,1.53,8.16-.06,16.33-.03,24.49-.03H196.47c7.28-5.9,14.53-11.83,21.87-17.66,1.61-1.28,1.46-1.92-.22-2.92-14.74-8.85-29.46-17.75-44.17-26.64-10.59-6.4-21.16-12.85-31.77-19.22-1.8-1.08-1.83-1.6,.08-2.68,8.89-5.03,17.71-10.18,26.54-15.32,10.48-6.09,20.95-12.22,31.44-18.31,11.35-6.58,22.72-13.13,34.08-19.7,11-6.36,22.01-12.72,33.01-19.09,4.8-2.78,9.59-5.57,14.71-8.54-26.35-15.95-52.42-31.73-78.78-47.69,57.43-40.42,114.5-80.58,171.56-120.74l-.33-.57c-1.56,.18-2.83,1.15-4.22,1.77-14.34,6.4-28.67,12.8-42.99,19.24-10.84,4.87-21.64,9.81-32.48,14.69-14.7,6.62-29.41,13.19-44.11,19.81-11.14,5.02-22.24,10.11-33.38,15.13-16.14,7.27-32.3,14.47-48.44,21.74-5.75,2.59-11.36,5.49-17.18,7.9-11.36,4.71-22.43,10.08-33.7,15-1.43,.62-1.5,1.04-.27,2.13,7.08,6.28,14.13,12.6,21.09,19.02,6.89,6.35,13.94,12.52,21.09,18.57,.98,.83,1.08,1.41-.25,1.88-2.26,.81-4.5,1.7-6.79,2.43-11.36,3.64-22.6,7.64-33.84,11.65-11.33,4.04-22.72,7.91-34.09,11.84-11.6,4.01-23.23,7.96-34.82,11.99-9.71,3.37-19.4,6.82-29.11,10.2-6.98,2.43-13.97,4.81-20.95,7.22v67.43c5.03,4.44,10.05,8.89,15.09,13.33,1.23,1.08,.82,1.72-.45,2.37-2.74,1.39-5.41,2.92-8.16,4.3-2.12,1.06-3.92,2.86-6.48,2.99Z"/>
          <path class="cls-2" d="M.05,973.08c6.98-2.4,13.98-4.79,20.95-7.22,9.71-3.38,19.39-6.83,29.11-10.2,11.6-4.02,23.22-7.98,34.82-11.99,11.37-3.93,22.76-7.8,34.09-11.84,11.24-4,22.48-8,33.84-11.65,2.29-.73,4.53-1.62,6.79-2.43,1.33-.47,1.23-1.05,.25-1.88-7.15-6.05-14.2-12.21-21.09-18.57-6.96-6.42-14.01-12.74-21.09-19.02-1.23-1.09-1.16-1.51,.27-2.13,11.27-4.91,22.33-10.29,33.7-15,5.82-2.41,11.43-5.31,17.18-7.9,16.14-7.27,32.3-14.48,48.44-21.74,11.14-5.02,22.24-10.11,33.38-15.13,14.69-6.62,29.41-13.19,44.11-19.81,10.83-4.88,21.64-9.82,32.48-14.69,14.32-6.44,28.65-12.84,42.99-19.24,1.39-.62,2.67-1.59,4.22-1.77l.33,.57c-57.06,40.16-114.13,80.32-171.56,120.74,26.36,15.95,52.43,31.74,78.78,47.69-5.12,2.97-9.91,5.76-14.71,8.54-11,6.37-22,12.73-33.01,19.09-11.36,6.57-22.73,13.11-34.08,19.7-10.49,6.08-20.95,12.21-31.44,18.31-8.83,5.13-17.65,10.29-26.54,15.32-1.91,1.08-1.88,1.59-.08,2.68,10.61,6.37,21.18,12.82,31.77,19.22,14.71,8.9,29.43,17.8,44.17,26.64,1.67,1,1.82,1.64,.22,2.92-7.33,5.83-14.59,11.77-21.87,17.66h9c3.43-3.75,7.72-6.47,11.64-9.63,8.1-6.53,16.28-12.96,24.49-19.36,1.57-1.23,1.63-1.78-.2-2.84-24.74-14.4-49.44-28.87-74.15-43.33-.77-.45-1.52-.93-2.63-1.61,46.42-26.62,92.02-53.93,139.48-79.31-26.32-17.41-52.2-34.54-78.35-51.84,6.08-4.28,11.91-8.38,17.74-12.48,42.27-29.74,84.53-59.51,126.83-89.22,14.1-9.9,28.01-20.07,42.57-29.3,.67-.42,2.08-.67,1.64-1.7-.56-1.31-1.79-1.01-2.99-.48-13.95,6.1-28.05,11.84-42.21,17.43-37.29,14.72-74.99,28.35-112.65,42.06-45.41,16.53-90.87,32.93-135.52,51.45-9.75,4.05-19.42,8.3-29.04,12.42,0,1.06,.73,1.3,1.22,1.68,16.02,12.53,30.76,26.52,45.89,40.06,1.95,1.74,1.92,1.77-.62,2.63-34.64,11.83-69.82,21.92-104.98,32.03-10.31,2.96-20.61,5.96-30.92,8.91-.87,.25-1.7,.74-2.66,.56v24.97Z"/>
          <path class="cls-2" d="M.05,1063.48c2.56-.13,4.35-1.92,6.48-2.99,2.75-1.38,5.42-2.9,8.16-4.3,1.27-.65,1.68-1.29,.45-2.37-5.04-4.43-10.06-8.88-15.09-13.33v22.97Z"/>
        </g>
        <g>
          <path class="cls-5" d="M.05,103.44v55.94c1.6,.66,3.22,1.31,4.81,2,11.73,5.07,23.47,10.13,35.19,15.24,9.96,4.34,19.89,8.76,29.83,13.14,13.76,6.05,27.51,12.11,41.27,18.15,11.03,4.84,22.09,9.62,33.12,14.45,4.69,2.05,9.35,4.16,14.24,6.33-1.72,1.52-3.15,2.97-4.77,4.18-5.9,4.42-11.87,8.76-17.67,13.32-7.31,5.74-14.75,11.31-22.14,16.94-1.28,.98-1.91,1.73,.13,2.74,3.79,1.89,7.46,4.02,11.18,6.05,15.01,8.23,30,16.5,45.03,24.7,10.28,5.6,20.54,11.26,30.88,16.76,13.79,7.33,27.33,15.12,41.02,22.64,11.43,6.28,22.94,12.44,34.38,18.71,14.79,8.1,29.56,16.26,44.34,24.37,10.63,5.83,21.28,11.64,31.93,17.44,1.22,.67,2.48,1.26,4.2,2.13-.4-.79-.46-1.06-.63-1.2-6.12-5.09-12.24-10.17-18.37-15.24-7.34-6.08-14.69-12.14-22.04-18.21-7.22-5.96-14.45-11.92-21.68-17.88-6.85-5.64-13.73-11.23-20.55-16.89-7.53-6.25-14.98-12.59-22.52-18.83-7.92-6.55-15.93-13-23.86-19.54-9.27-7.65-18.49-15.37-27.75-23.02-2.03-1.67-2.09-1.62,.31-2.82,19.38-9.77,38.77-19.54,58.16-29.3,6.68-3.36,13.38-6.71,20.03-10.04-.13-.74-.69-.84-1.09-1.12-7.42-5.18-14.81-10.4-22.27-15.53-24.56-16.89-49.14-33.75-73.71-50.62-11.09-7.62-22.16-15.27-33.29-22.83-1.69-1.15-1.96-1.67,.08-2.67,6.84-3.39,13.59-6.93,20.41-10.36,19.24-9.69,38.47-19.39,57.75-29,1.71-.85,1.49-1.44,.36-2.43-1-.87-2.07-1.67-3.01-2.6-5.85-5.79-11.99-11.28-17.92-16.97-9.24-8.86-18.59-17.6-27.92-26.37-8.48-7.97-16.81-16.09-25.26-24.1-3.67-3.49-7.5-6.82-11.18-10.29-3.74-3.53-7.39-7.16-11.08-10.75C87.35,.05,44.7,.06,2.05,0,.34,0,0,.33,0,2.05c.08,20.98,.05,41.95,.05,62.93,8.77,5.51,17.54,11.03,26.32,16.53,1.18,.74,1.24,1.18,.02,2.1-5.75,4.35-11.38,8.86-17.13,13.21-3.01,2.28-5.7,5.04-9.21,6.62Z"/>
          <path class="cls-4" d="M130,.05c3.69,3.59,7.34,7.21,11.08,10.75,3.68,3.48,7.51,6.81,11.18,10.29,8.44,8.01,16.78,16.14,25.26,24.1,9.33,8.77,18.68,17.51,27.92,26.37,5.94,5.69,12.08,11.18,17.92,16.97,.94,.93,2.01,1.73,3.01,2.6,1.14,.99,1.36,1.57-.36,2.43-19.28,9.61-38.52,19.3-57.75,29-6.81,3.43-13.57,6.98-20.41,10.36-2.03,1.01-1.76,1.53-.08,2.67,11.13,7.56,22.2,15.21,33.29,22.83,24.57,16.87,49.15,33.73,73.71,50.62,7.45,5.13,14.85,10.35,22.27,15.53,.39,.28,.95,.38,1.09,1.12-6.65,3.33-13.34,6.68-20.03,10.04-19.39,9.76-38.77,19.53-58.16,29.3-2.4,1.21-2.34,1.15-.31,2.82,9.27,7.65,18.48,15.37,27.75,23.02,7.93,6.54,15.94,12.99,23.86,19.54,7.54,6.24,14.99,12.58,22.52,18.83,6.82,5.66,13.7,11.26,20.55,16.89,7.23,5.95,14.45,11.91,21.68,17.88,7.35,6.07,14.7,12.14,22.04,18.21,6.13,5.07,12.25,10.15,18.37,15.24,.17,.14,.22,.41,.63,1.2-1.72-.87-2.98-1.47-4.2-2.13-10.65-5.81-21.3-11.61-31.93-17.44-14.79-8.11-29.55-16.27-44.34-24.37-11.45-6.26-22.95-12.42-34.38-18.71-13.69-7.52-27.23-15.31-41.02-22.64-10.34-5.5-20.59-11.15-30.88-16.76-15.03-8.19-30.02-16.46-45.03-24.7-3.72-2.04-7.39-4.17-11.18-6.05-2.04-1.02-1.41-1.77-.13-2.74,7.39-5.64,14.83-11.2,22.14-16.94,5.8-4.56,11.77-8.9,17.67-13.32,1.62-1.21,3.05-2.67,4.77-4.18-4.89-2.17-9.55-4.28-14.24-6.33-11.03-4.83-22.09-9.62-33.12-14.45-13.77-6.03-27.52-12.09-41.27-18.15-9.94-4.38-19.87-8.79-29.83-13.14-11.71-5.11-23.45-10.17-35.19-15.24-1.59-.69-3.21-1.33-4.81-2v25.47c6.07,1.78,11.88,4.27,17.79,6.48,22.98,8.59,45.94,17.24,68.87,25.98,16.94,6.46,33.74,13.26,50.36,20.49,.38,.16,.75,.35,1.5,.72-17.16,13.01-33.58,26.59-51.89,38.42,4.84,2.6,9.25,5.02,13.7,7.36,38.17,20,77.29,38.06,116.48,55.95,48.93,22.34,98.13,44.13,146.31,68.07,11.17,5.55,22.15,11.47,33.24,17.18,.98,.51,1.89,1.5,3.18,.98-60.74-48.67-120.09-99.04-180.75-148.54,26.99-14.99,53.68-29.81,80.83-44.89-44.5-28.39-87.12-58.68-130.68-88.34,6.47-3.15,12.5-6.09,18.54-9.02,18.56-9,37.11-18.01,55.7-26.97,1.62-.78,2.13-1.34,.95-3.06-2.37-3.41-4.52-6.98-6.67-10.53-1.09-1.81-2.43-3.34-3.96-4.77C201.2,60.26,168.55,30.46,136.49,.05h-6.5Z"/>
          <path class="cls-4" d="M.05,103.44c3.52-1.58,6.2-4.34,9.21-6.62,5.75-4.35,11.38-8.86,17.13-13.21,1.22-.92,1.16-1.37-.02-2.1C17.59,76.01,8.82,70.49,.05,64.98v28.97c3.42,1.74,3.43,1.86,.24,3.95-.06,.04-.16,.03-.24,.05v5.49Z"/>
          <path class="cls-6" d="M.05,97.94c.08-.02,.18,0,.24-.05,3.19-2.09,3.18-2.21-.24-3.95v4Z"/>
        </g>
        <g>
          <path class="cls-3" d="M.05,521.53v189.79c7.48-.11,14.79-1.74,22.19-2.63,14.13-1.69,28.2-3.88,42.31-5.82,12.38-1.7,24.76-3.4,37.16-4.97,2.15-.27,2.09-1.1,1.32-2.58-2.15-4.13-4.31-8.25-6.45-12.39-3.21-6.2-6.36-12.43-9.61-18.61-7.92-15.08-15.86-30.15-23.83-45.21-1.02-1.92-.28-2.28,1.53-2.2,4.98,.21,9.96,.08,14.95,.38,8.38,.5,16.79,.02,25.19,.54,8.29,.51,16.62-.1,24.94,.47,8.2,.56,16.45-.06,24.69,.51,8.12,.55,16.29,.27,24.43,.42,13.39,.24,26.78,.67,40.17,.66,.68,0,1.46,.26,2.2-.4-4.56-8.73-9.09-17.41-13.61-26.1-2.15-4.12-4.27-8.26-6.43-12.38-6.71-12.81-13.43-25.61-20.17-38.41-.76-1.45-.55-2.04,1.23-2.12,9.36-.44,18.69-1.29,28.03-1.89,9.76-.63,19.51-1.38,29.26-2.01,9.76-.63,19.51-1.34,29.27-2.01,9.92-.68,19.84-1.35,29.76-2.02,7.19-.48,14.38-1.02,21.57-1.51,9.42-.64,18.84-1.23,28.26-2,8.67-.71,17.4-.83,26.05-1.69,3.61-.36,7.35,.26,11.16-1.22-2.45-.22-4.6-.35-6.72-.62-10.17-1.29-20.33-2.66-30.5-3.93-12.31-1.54-24.62-3.04-36.93-4.5-10.35-1.23-20.72-2.32-31.06-3.59-11.49-1.41-22.96-2.99-34.45-4.4-11.48-1.41-22.98-2.7-34.46-4.06-11.18-1.33-22.35-2.67-33.52-4.03-13.38-1.64-26.76-3.3-40.14-4.96-8.54-1.06-17.08-2.04-25.6-3.23-1.97-.27-1.69,.38-1.29,1.67,4.62,14.98,8.85,30.08,13.78,44.96,.97,2.91,1.71,5.9,2.65,9.18-.87-.27-1.25-.43-1.65-.51-17.34-3.67-34.68-7.33-52.02-11.01-10.29-2.18-20.57-4.4-30.85-6.57-14.26-3.02-28.52-6.01-42.77-9.01Z"/>
          <path class="cls-4" d="M.05,521.53c14.26,3,28.52,6,42.77,9.01,10.29,2.18,20.57,4.39,30.85,6.57,17.34,3.68,34.68,7.34,52.02,11.01,.4,.08,.78,.24,1.65,.51-.94-3.28-1.68-6.27-2.65-9.18-4.94-14.88-9.16-29.98-13.78-44.96-.4-1.3-.68-1.95,1.29-1.67,8.52,1.18,17.06,2.17,25.6,3.23,13.38,1.65,26.76,3.32,40.14,4.96,11.17,1.37,22.35,2.71,33.52,4.03,11.49,1.36,22.98,2.65,34.46,4.06,11.49,1.41,22.96,3,34.45,4.4,10.35,1.27,20.71,2.36,31.06,3.59,12.31,1.46,24.63,2.96,36.93,4.5,10.17,1.27,20.33,2.64,30.5,3.93,2.13,.27,4.28,.4,6.72,.62-3.81,1.48-7.56,.86-11.16,1.22-8.65,.86-17.38,.98-26.05,1.69-9.41,.77-18.84,1.36-28.26,2-7.19,.49-14.38,1.02-21.57,1.51-9.92,.67-19.84,1.34-29.76,2.02-9.76,.67-19.51,1.38-29.27,2.01-9.75,.63-19.5,1.38-29.26,2.01-9.34,.6-18.67,1.46-28.03,1.89-1.78,.08-1.99,.68-1.23,2.12,6.74,12.8,13.46,25.6,20.17,38.41,2.16,4.12,4.28,8.25,6.43,12.38,4.53,8.68,9.06,17.36,13.61,26.1-.75,.66-1.52,.4-2.2,.4-13.39,0-26.78-.42-40.17-.66-8.14-.15-16.31,.13-24.43-.42-8.24-.56-16.48,.06-24.69-.51-8.32-.57-16.64,.03-24.94-.47-8.4-.52-16.81-.04-25.19-.54-4.99-.3-9.97-.16-14.95-.38-1.81-.08-2.54,.28-1.53,2.2,7.97,15.06,15.92,30.12,23.83,45.21,3.24,6.18,6.4,12.41,9.61,18.61,2.14,4.14,4.3,8.26,6.45,12.39,.77,1.48,.83,2.3-1.32,2.58-12.4,1.57-24.78,3.27-37.16,4.97-14.1,1.94-28.17,4.13-42.31,5.82-7.39,.89-14.7,2.52-22.19,2.63v4.99c11.63-1.5,23.26-3.02,34.9-4.5,15.1-1.93,30.2-3.82,45.3-5.73,9.9-1.25,19.8-2.54,29.7-3.74,3.89-.47,7.19-2.51,10.76-3.84,2.08-.78,5.3-1.04,5.83-2.76,.57-1.85-1.7-4.07-2.8-6.09-12-22.15-24.02-44.29-36.04-66.43-.15-.28-.24-.6-.45-1.16,4.32,0,8.5-.07,12.67,.01,14.98,.28,29.97,.56,44.95,.91,24.39,.58,48.78,.87,73.16,2,7.4,.34,14.81,.6,22.21,.98,1.95,.1,2.52-.12,1.53-2.19-9.4-19.74-18.72-39.51-28.06-59.28-2.98-6.31-5.91-12.66-8.98-18.93-.85-1.74-.43-1.98,1.31-2.1,23.58-1.58,47.16-3.25,70.74-4.86,15.86-1.08,31.73-2.09,47.59-3.18,22.83-1.57,45.67-3.16,68.49-4.81,13.87-1,27.77-1.35,41.65-2.07,.91-.05,1.83-.1,2.77-.41-4.84-.67-9.67-1.36-14.51-2.01-18.22-2.45-36.35-5.47-54.45-8.66-28.75-5.07-57.39-10.7-86.03-16.34-29.61-5.83-59.21-11.69-88.85-17.33-27.04-5.15-54.18-9.74-81.44-13.59-4.76-.67-9.54-1.19-14.84-1.84,7.83,20.03,13.19,40.31,19.53,60.8-8.08-1.85-15.68-3.53-23.26-5.33-30.82-7.32-61.36-15.7-91.94-23.97-.48-.13-.97-.21-1.46-.31v21.98Z"/>
        </g>
      </g>
    </g>
  </g>
</svg>