<?xml version="1.0" encoding="UTF-8"?>
<svg xmlns="http://www.w3.org/2000/svg" viewBox="0 0 449.76 164.81">
  <defs>
    <style>
      .cls-1 {
        fill: #feca05;
      }

      .cls-2 {
        fill: #3467af;
      }

      .cls-3 {
        fill: #fefefe;
      }
    </style>
  </defs>
  <g id="Capa_1" data-name="Capa 1"/>
  <g id="Capa_2" data-name="Capa 2">
    <g id="Capa_1-2" data-name="Capa 1">
      <g>
        <path class="cls-2" d="M92.18,126.06c.06,1.41,.58,2.72,.92,4.07,1.62,6.34,3.28,12.67,4.96,18.99,.17,.64,.08,.99-.5,1.34-1.34,.84-2.71,1.65-3.92,2.65-2.75,2.25-6.13,2.94-9.36,4-7.82,2.56-15.67,5.05-23.5,7.6-.67,.22-.92,.11-1.21-.55-8.44-19.18-16.91-38.35-25.38-57.53-2.1-4.75-4.2-9.5-6.27-14.27-.27-.63-.51-.72-1.13-.44-1.97,.9-3.98,1.69-5.95,2.59-.63,.28-.91,.23-1.28-.4-5.78-9.79-11.58-19.56-17.39-29.33-.67-1.13-1.33-2.27-2.02-3.38-.22-.36-.22-.58,.1-.89,1.91-1.9,3.79-3.83,5.69-5.74,.12-.12,.26-.23,.41-.33,9.31-6.18,19.01-11.61,29.58-15.36,10.25-3.64,20.75-5.93,31.67-5.79,6.83,.08,13.67,.66,20.07,3.27,8.98,3.67,16.32,9.33,20.8,18.19,3.35,6.62,3.89,13.57,2.4,20.74-.03,.14-.05,.28-.09,.57,1.63-1.12,3.2-2.12,4.85-2.97,6.39-3.27,13.14-4.65,20.29-3.86,.54,.06,.73,.03,.66-.58-.15-1.19-.27-2.38-.32-3.58-.03-.59-.28-.56-.71-.45-1.92,.49-3.86,.95-5.77,1.46-.52,.14-.7,.14-.73-.49-.32-6.84-.67-13.67-1.04-20.51-.04-.68,.16-1.03,.77-1.35,2.03-1.03,4.01-2.17,6.04-3.2,2.12-1.08,4.45-1.58,6.7-2.3,11.38-3.65,22.77-7.28,34.15-10.91,1.18-.38,1.17-.38,1.16,.88-.01,1.49,0,2.98,0,4.48,.45-.49,.67-1.17,1.01-1.78,.21-.38,.46-.65,.84-.85,2.09-1.12,4.18-2.23,6.24-3.39,.57-.32,.94-.29,1.44,.15,6.99,6.23,14.01,12.44,21.01,18.66,1.07,.95,2.16,1.89,3.21,2.86,.33,.31,.59,.35,1,.13,1.74-.95,3.5-1.87,5.35-2.85-.6-.72-1.16-1.4-1.73-2.08-1.06-1.25-2.09-2.53-3.19-3.74-.46-.5-.36-.78,.04-1.23,4.92-5.61,9.83-11.23,14.73-16.86,3.84-4.41,7.66-8.84,11.5-13.25,1.29-1.48,2.62-2.92,3.89-4.41,.44-.52,1.06-.72,1.6-1.02,1.81-1,3.69-1.88,5.52-2.85,.55-.29,.84-.21,1.19,.32,5.36,8.03,10.73,16.05,16.13,24.05,.45,.67,.16,.84-.37,1.12-7.48,4-14.94,8.01-22.41,12.02-.3,.16-.6,.33-1.13,.62,9.55,.37,17.78,3.46,24.78,9.84,.5-3,1-5.86,1.44-8.73,.08-.54,.31-.81,.76-1.05,2.03-1.09,4.06-2.2,6.07-3.34,.48-.27,.95-.38,1.5-.38,6.5,.01,13,0,19.5,0,.78,0,1.48,0,2.22-.57,1.05-.81,2.4-1.22,3.51-1.97,2.35-1.59,4.88-2.02,7.69-1.97,7.44,.14,14.88,.06,22.31,.03,.68,0,.92,.15,1.03,.88,1.78,11.43,3.6,22.86,5.42,34.29,.2,1.26,.41,2.52,.64,3.88,1.62-1.1,3.16-2.08,4.81-2.9,4.92-2.46,10.1-3.81,15.62-3.79,.73,0,.85-.23,.84-.89-.12-6.35-.19-12.7-.31-19.05-.01-.64,.17-.99,.75-1.29,2.08-1.07,4.13-2.19,6.17-3.33,.47-.26,.92-.31,1.42-.19,4.48,1.02,8.96,2.05,13.45,3.04,4.69,1.04,9.41,1.97,14.09,3.07,3.03,.71,6.08,1.3,9.1,2.06,.99,.25,2.01,.58,3.07,.59,.49,0,.7,.27,.79,.75,.22,1.23,.49,2.45,.76,3.78,1.62-.86,3.18-1.64,4.7-2.51,.58-.33,1.1-.36,1.73-.21,10.9,2.66,21.81,5.31,32.71,7.95,.17,.04,.35,.05,.52,.07v2.81c-1,2.95-2.02,5.9-3,8.86-9.84,29.63-19.68,59.25-29.52,88.88-.18,.53-.44,.89-.96,1.15-2.13,1.09-4.25,2.22-6.36,3.36-.41,.22-.76,.28-1.23,.13-8.12-2.6-16.25-5.19-24.38-7.76-.5-.16-.67-.39-.67-.91-.04-2.87-.13-5.73-.18-8.6,0-.57-.15-.79-.76-.87-6.49-.9-12.97-1.85-19.45-2.78-1.27-.18-2.54-.39-3.82-.53-.61-.07-.73-.32-.65-.91,.47-3.83,.9-7.67,1.33-11.5,.03-.22,0-.45,0-.75-2.2,.94-4.37,1.82-6.68,2.21-1.27,.22-2.54,.4-3.82,.56-.42,.05-.51,.16-.43,.6,.43,2.56,.8,5.14,1.23,7.7,.1,.6,.01,.95-.58,1.26-2.07,1.09-4.11,2.23-6.15,3.37-.44,.24-.84,.31-1.33,.22-9.44-1.69-18.88-3.36-28.32-5.03-2.48-.44-4.95-.91-7.43-1.3-.67-.11-.89-.36-.96-1.04-.31-2.93-.69-5.85-1.05-8.86-1.8,.99-3.53,1.9-5.21,2.88-.59,.34-.82,.23-1.11-.34-1.03-2-2.14-3.96-3.19-5.95-.29-.56-.52-.75-1.17-.37-1.61,.94-3.29,1.78-4.93,2.68-.4,.22-.78,.3-1.25,.22-6.44-1.04-12.88-2.06-19.32-3.09-3.9-.62-7.8-1.25-11.69-1.86-1.26-.2-1.21-.18-1.03-1.27,.68-4.03,1.33-8.07,1.99-12.11,.02-.14,0-.29,0-.44-.37-.07-.61,.2-.86,.35-4.8,2.81-9.86,4.95-15.4,5.81-.68,.11-.71,.46-.71,1.01,.01,7.73,0,15.45,.03,23.18,0,.71-.22,1.09-.85,1.41-1.97,1.02-3.93,2.08-5.86,3.16-.57,.32-1,.34-1.61,.04-17.07-8.47-34.14-16.91-51.22-25.36-.36-.18-.69-.43-1.2-.48,0,.34,0,.65,0,.96,0,5.47,0,10.94,.03,16.42,0,.57-.14,.88-.66,1.15-2.22,1.12-4.39,2.32-6.62,3.42-1.3,.65-2.78,.61-4.19,.82-7.4,1.12-14.81,2.2-22.21,3.3-.64,.09-1.27,.18-1.91,.26-1.22,.15-1.2,.15-1.31-1.12-.29-3.29-.58-6.58-.88-9.95-1.29,.98-2.5,1.92-3.75,2.83-4.65,3.39-9.76,5.73-15.47,6.68-12.53,2.09-23.76-3.12-30.37-14.09-.15-.25-.33-.47-.49-.71-.03-.08-.06-.16-.09-.24-.02,.03-.06,.07-.06,.1,0,.09,.04,.16,.16,.12Zm11.39-56.67c.01-4.13-.57-7.15-1.88-10.02-3.42-7.54-9.5-12.21-16.92-15.23-5.74-2.33-11.89-2.71-18.02-2.77-6.47-.06-12.83,.93-19.08,2.56-10.6,2.76-20.54,7.08-29.87,12.81-.55,.34-.7,.56-.33,1.17,3.87,6.48,7.7,12.97,11.52,19.47,.29,.5,.51,.63,1.06,.35,2.32-1.18,4.67-2.29,6.99-3.47,.59-.3,.83-.29,1.13,.37,7.32,16.4,14.67,32.79,22.01,49.19,3.81,8.52,7.62,17.04,11.41,25.57,.25,.55,.48,.55,.96,.39,5.05-1.65,10.11-3.28,15.17-4.89,.6-.19,.75-.37,.58-1.03-3.28-12.48-6.51-24.98-9.8-37.46-.23-.86-.08-1.25,.67-1.72,7.85-4.99,14.41-11.28,19.19-19.3,3.11-5.23,5.11-10.82,5.18-15.99Zm307.72,25.49l-.16,.02c-.13-.63-.27-1.25-.4-1.88-2.79-13.2-5.59-26.39-8.35-39.6-.15-.71-.46-.93-1.1-1.06-6.02-1.19-12.03-2.41-18.05-3.61-2.38-.48-4.75-.96-7.13-1.43-.29-.06-.64-.21-.67,.35-.1,2.1-.23,4.21-.37,6.31-.03,.46,.18,.59,.58,.69,1.5,.38,2.98,.83,4.49,1.17,.68,.15,.78,.48,.72,1.08-.35,3.34-.58,6.7-1.03,10.03-.26,1.89-.17,3.5,1.56,4.65,.12,.08,.2,.21,.29,.33,6.28,7.5,8,16.09,5.95,25.49-1.73,7.94-5.89,14.5-11.92,19.9-.41,.37-.7,.73-.75,1.31-.29,3.32-.58,6.64-.94,9.96-.08,.79,.14,1.04,.9,1.16,4.57,.68,9.14,1.39,13.69,2.15,.75,.12,.93-.08,1.04-.75,.41-2.54,.86-5.07,1.31-7.6,1.62-9.17,3.25-18.35,4.88-27.52,.23-1.28,.48-2.55,.72-3.83,.38,10.44,.62,20.85,.87,31.27,.16,6.61,.33,13.22,.47,19.83,.01,.63,.24,.84,.8,1,4.14,1.2,8.29,2.41,12.41,3.68,.82,.25,1.12,.16,1.4-.7,6.76-20.55,13.55-41.09,20.34-61.63,2.57-7.79,5.14-15.58,7.74-23.36,.22-.65,.17-.89-.58-1.01-1.18-.18-2.34-.51-3.51-.77-5.11-1.13-10.22-2.25-15.32-3.39-.49-.11-.72-.04-.84,.5-.27,1.25-.62,2.49-.93,3.73-2.19,9.11-4.38,18.23-6.57,27.34-.5,2.07-1.01,4.13-1.51,6.2Zm-238.49,1.12c20.14,10.06,40.16,20.06,60.28,30.1,0-5.57,0-10.95,.01-16.33,0-.5-.16-.65-.64-.69-1.69-.15-3.36-.45-5.01-.87-9.67-2.43-17.3-7.64-22.3-16.41-.23-.4-.56-.56-.94-.71-5.11-2.02-10.22-4.04-15.33-6.06-2.52-1-5.05-2-7.67-3.03,.28-.3,.5-.53,.71-.76,7.96-8.39,15.91-16.78,23.88-25.15,.48-.5,.53-.76-.02-1.27-5.51-5.2-10.99-10.43-16.48-15.66-.29-.28-.59-.54-.92-.84-6.12,8.58-12.19,17.1-18.28,25.63-.3-.25-.25-.53-.26-.78-.48-7.97-.96-15.94-1.4-23.91-.04-.78-.24-.82-.91-.62-7.44,2.24-14.89,4.44-22.34,6.66-1.77,.53-1.76,.53-1.71,2.31,0,.26,0,.53,0,.79,.06,1.35,.14,2.71,.21,4.11,2.17-.56,4.24-1.07,6.3-1.62,.51-.14,.72-.14,.75,.48,.04,1.02,.19,2.04,.27,3.06,.61,7.32,1.22,14.63,1.82,21.95,.05,.58,.24,1.03,.66,1.46,5.15,5.42,7.68,11.92,7.93,19.34,.22,6.59-1.48,12.73-4.61,18.49-.36,.67-.55,1.3-.49,2.07,.33,3.64,.64,7.28,.9,10.93,.06,.85,.33,1.04,1.17,.92,4.51-.67,9.03-1.3,13.56-1.89,.79-.1,.99-.34,.99-1.12-.06-9.8-.09-19.61-.13-29.41,0-.34,0-.69,0-1.16Zm122.98-11.05l.18-.03c1.91,4.12,3.83,8.25,5.74,12.37,1.91,4.1,3.82,8.21,5.79,12.44,2.58-6.65,5.09-13.13,7.61-19.62,.41,1.64,.67,3.24,.91,4.85,1.53,10.14,3.06,20.28,4.58,30.43,.07,.46,.22,.64,.69,.71,1.42,.19,2.83,.43,4.25,.65,4.97,.76,9.95,1.51,14.92,2.27,.5,.08,.77,.05,.64-.6-.21-1.09-.37-2.19-.5-3.29-.07-.61-.31-.99-.93-1.2-.63-.21-1.22-.56-1.81-.88-10.61-5.95-16.13-18.27-13.67-30.37,1.3-6.39,4.1-12.02,8.29-16.98,.23-.27,.42-.5,.35-.92-.44-2.68-.84-5.37-1.26-8.05-.97-6.29-1.94-12.59-2.91-18.88-.48-3.15-.96-6.29-1.45-9.44-.06-.37-.14-.63-.63-.62-4.33,.02-8.67,0-13,.01-.21,0-.44-.07-.5,.3-.27,1.74-.56,3.47-.86,5.2-.31,1.76-.62,3.51-.95,5.27-.33,1.78-.69,3.55-1.01,5.33-.32,1.84-.6,3.69-.91,5.53-.32,1.87-.65,3.73-1,5.59-.16,.87-.36,1.74-.58,2.76-.18-.3-.3-.41-.32-.54-.49-2.63-.97-5.26-1.45-7.89-.56-3.08-1.13-6.17-1.69-9.25-.44-2.41-.89-4.81-1.29-7.22-.1-.62-.27-.88-.97-.87-5.92,.03-11.83,.04-17.75,0-.8,0-1,.36-1.09,.96-.43,2.66-.83,5.33-1.27,7.99-1.6,9.57-3.21,19.13-4.84,28.69-.09,.54,.03,.86,.43,1.2,1.68,1.46,3.31,2.98,4.99,4.43,.47,.41,.46,.63,.03,1.06-2.5,2.5-4.97,5.04-7.46,7.57-.23,.23-.44,.45-.5,.8-.83,5.04-1.67,10.09-2.53,15.13-.09,.55,.1,.61,.55,.69,3.2,.54,6.39,1.12,9.59,1.68,2.74,.48,5.48,.92,8.21,1.42,.65,.12,.88-.07,.96-.7,.13-1.07,.32-2.14,.49-3.21,1.03-6.49,2.05-12.98,3.08-19.48,.28-1.75,.57-3.5,.85-5.26Zm-58.84,16.53c3.83-.06,7.46-.59,11.05-1.53,8.75-2.29,16.54-6.26,22.91-12.79,.5-.52,.45-.75-.05-1.2-3.63-3.23-7.23-6.49-10.84-9.74-.5-.45-1-1.22-1.52-1.24-.54-.02-.94,.86-1.38,1.35-4.28,4.73-9.69,7-16,7.27-.37,.02-.9,.16-1.07-.17-.17-.35,.34-.6,.58-.86,7.85-8.37,15.7-16.74,23.57-25.08,.55-.58,.53-.91,.03-1.48-4.9-5.51-11.05-8.65-18.32-9.59-5.79-.75-11.44,.05-16.92,2.01-6.28,2.24-11.57,5.85-15.45,11.35-4.01,5.69-5.34,12.04-4.55,18.9,.79,6.77,3.71,12.37,9.09,16.61,5.56,4.38,12.02,6.1,18.86,6.19Zm-113.08,27.08c1,.06,2.17-.07,3.32-.23,6.48-.93,12.15-3.64,16.88-8.12,7.29-6.91,11.37-15.24,10.43-25.5-.54-5.89-3.06-10.91-7.76-14.62-6.22-4.9-13.32-5.92-20.83-4.06-9.48,2.35-16.39,8.13-21.03,16.62-2.8,5.12-4.08,10.63-3.36,16.48,1.41,11.46,10.53,19.42,22.36,19.42Zm228.38-8.77c1.03,.05,2.25-.07,3.47-.26,6.55-1.04,12.21-3.88,16.87-8.6,6.34-6.43,9.89-14,8.97-23.22-.54-5.44-2.87-10.06-7.16-13.5-6.2-4.98-13.32-5.91-20.81-3.93-9.4,2.49-16.12,8.39-20.36,17.07-2.57,5.28-3.43,10.86-1.97,16.63,2.46,9.7,10.52,15.8,20.98,15.8ZM257.54,23.2c-.14-.2-.29-.42-.44-.63-2.6-3.53-5.2-7.06-7.8-10.59q-.61-.83-1.29-.02c-5.41,6.49-10.82,12.98-16.22,19.47-.52,.63-1.32,1.23-1.43,1.93-.11,.72,.81,1.34,1.17,2.07,.3,.62,.63,.54,1.16,.27,2.81-1.43,5.65-2.81,8.47-4.21,5.26-2.61,10.51-5.22,15.76-7.84,.22-.11,.52-.13,.62-.46Zm-56.32,48.46c-2.52,2.44-4.84,4.73-7.21,6.98-.6,.57-.39,.72,.24,.92,.72,.23,1.42,.54,2.12,.81,1.76,.68,3.53,1.35,5.44,2.08-.7-3.58-.86-7.06-.58-10.79Z"/>
        <path class="cls-2" d="M430.08,150.13c-.31,.9-.63,1.8-.94,2.69-.09,.24-.13,.51-.51,.49-.33-.02-.35-.28-.42-.49-.34-.94-.66-1.89-1.08-2.81,0,.93,0,1.86,0,2.79,0,.22,.07,.5-.31,.5-.37,0-.32-.27-.32-.49,0-1.17,0-2.34,0-3.51,0-.23-.12-.56,.31-.59,.37-.03,.67,0,.81,.45,.31,1.02,.67,2.03,1.07,3.26,.42-1.19,.79-2.17,1.11-3.18,.13-.41,.32-.59,.74-.53,.48,.07,.29,.44,.3,.69,.02,1.11,.01,2.22,0,3.33,0,.24,.1,.58-.33,.57-.44-.01-.29-.37-.29-.59-.02-.85,0-1.69,0-2.54l-.14-.03Z"/>
        <path class="cls-2" d="M424.49,151.36c0,.44,.02,.88,0,1.31-.01,.25,.15,.65-.35,.63-.46-.03-.33-.4-.34-.67-.01-.82-.05-1.64,0-2.45,.05-.68-.15-.97-.86-.87-.21,.03-.58,.15-.6-.28-.01-.43,.34-.31,.58-.31,.88-.01,1.75,0,2.63,0,.22,0,.42,.03,.42,.31,0,.23-.16,.32-.35,.29-1.34-.27-1.18,.62-1.14,1.44,.01,.2,0,.41,0,.61Z"/>
        <path class="cls-1" d="M103.58,69.38c-.07,5.17-2.07,10.77-5.18,15.99-4.78,8.03-11.34,14.32-19.19,19.3-.75,.47-.89,.86-.67,1.72,3.29,12.48,6.52,24.97,9.8,37.46,.17,.66,.02,.84-.58,1.03-5.06,1.61-10.12,3.24-15.17,4.89-.48,.16-.72,.16-.96-.39-3.78-8.53-7.59-17.05-11.41-25.57-7.34-16.39-14.69-32.78-22.01-49.19-.29-.66-.54-.67-1.13-.37-2.32,1.18-4.67,2.29-6.99,3.47-.56,.28-.77,.15-1.06-.35-3.82-6.5-7.66-12.99-11.52-19.47-.37-.62-.22-.84,.33-1.17,9.33-5.73,19.27-10.04,29.87-12.81,6.25-1.63,12.61-2.62,19.08-2.56,6.12,.06,12.28,.44,18.02,2.77,7.42,3.02,13.5,7.7,16.92,15.23,1.3,2.87,1.89,5.88,1.88,10.02Zm-27.44-4.63c-3.55-.01-6.52,.85-9.36,2.28-.44,.22-.5,.43-.37,.88,2.66,9.32,5.64,18.55,8.49,27.81,.18,.57,.36,.61,.83,.3,2.22-1.48,4.4-3.01,6.4-4.76,3.92-3.43,6.75-7.48,6.95-12.89,.2-5.28-1.34-9.62-6.82-12.25-2.04-.98-4.21-1.4-6.12-1.36Z"/>
        <path class="cls-1" d="M411.29,94.87c.51-2.07,1.02-4.13,1.51-6.2,2.19-9.11,4.38-18.23,6.57-27.34,.3-1.25,.65-2.48,.93-3.73,.12-.54,.35-.61,.84-.5,5.1,1.14,10.21,2.26,15.32,3.39,1.17,.26,2.33,.59,3.51,.77,.75,.11,.79,.36,.58,1.01-2.59,7.78-5.16,15.57-7.74,23.36-6.79,20.54-13.58,41.08-20.34,61.63-.28,.85-.58,.95-1.4,.7-4.12-1.27-8.27-2.47-12.41-3.68-.56-.16-.79-.37-.8-1-.13-6.61-.31-13.22-.47-19.83-.25-10.41-.49-20.83-.87-31.27-.24,1.28-.49,2.55-.72,3.83-1.63,9.17-3.25,18.35-4.88,27.52-.45,2.53-.9,5.06-1.31,7.6-.11,.67-.29,.88-1.04,.75-4.56-.76-9.12-1.46-13.69-2.15-.76-.11-.98-.37-.9-1.16,.36-3.31,.65-6.63,.94-9.96,.05-.58,.34-.95,.75-1.31,6.03-5.4,10.19-11.96,11.92-19.9,2.05-9.4,.33-17.99-5.95-25.49-.09-.11-.17-.25-.29-.33-1.73-1.15-1.81-2.76-1.56-4.65,.46-3.33,.68-6.69,1.03-10.03,.06-.61-.04-.93-.72-1.08-1.51-.34-2.99-.8-4.49-1.17-.4-.1-.61-.22-.58-.69,.14-2.1,.27-4.2,.37-6.31,.03-.56,.37-.41,.67-.35,2.38,.47,4.76,.95,7.13,1.43,6.02,1.21,12.03,2.42,18.05,3.61,.64,.13,.96,.35,1.1,1.06,2.76,13.2,5.56,26.4,8.35,39.6,.13,.63,.27,1.25,.4,1.88l.16-.02Z"/>
        <path class="cls-1" d="M172.8,95.99c0,.48,0,.82,0,1.16,.04,9.8,.06,19.61,.13,29.41,0,.78-.2,1.02-.99,1.12-4.53,.58-9.04,1.22-13.56,1.89-.84,.12-1.11-.07-1.17-.92-.26-3.65-.58-7.29-.9-10.93-.07-.77,.12-1.4,.49-2.07,3.13-5.76,4.83-11.89,4.61-18.49-.25-7.42-2.78-13.92-7.93-19.34-.41-.44-.61-.89-.66-1.46-.6-7.32-1.21-14.63-1.82-21.95-.09-1.02-.23-2.04-.27-3.06-.02-.62-.24-.62-.75-.48-2.06,.56-4.13,1.07-6.3,1.62-.07-1.4-.14-2.75-.21-4.11-.01-.26,0-.53,0-.79-.05-1.78-.05-1.78,1.71-2.31,7.45-2.22,14.9-4.42,22.34-6.66,.67-.2,.87-.16,.91,.62,.44,7.97,.93,15.94,1.4,23.91,.01,.25-.04,.53,.26,.78,6.08-8.53,12.16-17.05,18.28-25.63,.33,.3,.63,.57,.92,.84,5.49,5.22,10.97,10.46,16.48,15.66,.55,.52,.5,.77,.02,1.27-7.97,8.37-15.93,16.77-23.88,25.15-.22,.23-.43,.46-.71,.76,2.62,1.04,5.14,2.03,7.67,3.03,5.11,2.02,10.22,4.04,15.33,6.06,.38,.15,.71,.31,.94,.71,5,8.77,12.63,13.98,22.3,16.41,1.65,.41,3.31,.72,5.01,.87,.48,.04,.64,.19,.64,.69-.02,5.38-.01,10.77-.01,16.33-20.12-10.04-40.14-20.04-60.28-30.1Z"/>
        <path class="cls-1" d="M295.78,84.93c-.28,1.75-.57,3.5-.85,5.26-1.03,6.49-2.06,12.98-3.08,19.48-.17,1.07-.36,2.13-.49,3.21-.07,.63-.31,.82-.96,.7-2.73-.5-5.47-.94-8.21-1.42-3.2-.56-6.39-1.14-9.59-1.68-.46-.08-.65-.14-.55-.69,.87-5.04,1.7-10.08,2.53-15.13,.06-.35,.27-.56,.5-.8,2.49-2.52,4.95-5.06,7.46-7.57,.44-.44,.44-.66-.03-1.06-1.68-1.45-3.32-2.97-4.99-4.43-.4-.35-.52-.66-.43-1.2,1.63-9.56,3.24-19.13,4.84-28.69,.44-2.66,.84-5.33,1.27-7.99,.1-.6,.3-.96,1.09-.96,5.92,.05,11.83,.04,17.75,0,.7,0,.87,.26,.97,.87,.4,2.41,.85,4.82,1.29,7.22,.56,3.08,1.12,6.17,1.69,9.25,.48,2.63,.96,5.26,1.45,7.89,.02,.13,.14,.25,.32,.54,.22-1.02,.42-1.89,.58-2.76,.34-1.86,.68-3.72,1-5.59,.31-1.84,.59-3.69,.91-5.53,.31-1.78,.68-3.55,1.01-5.33,.32-1.75,.64-3.51,.95-5.27,.3-1.73,.6-3.46,.86-5.2,.06-.38,.29-.3,.5-.3,4.33,0,8.67,0,13-.01,.5,0,.58,.26,.63,.62,.48,3.15,.96,6.29,1.45,9.44,.97,6.29,1.94,12.59,2.91,18.88,.41,2.69,.82,5.37,1.26,8.05,.07,.42-.12,.65-.35,.92-4.19,4.97-6.99,10.59-8.29,16.98-2.46,12.1,3.05,24.41,13.67,30.37,.59,.33,1.18,.67,1.81,.88,.62,.21,.86,.58,.93,1.2,.13,1.1,.28,2.2,.5,3.29,.13,.65-.14,.67-.64,.6-4.97-.76-9.94-1.51-14.92-2.27-1.42-.22-2.83-.46-4.25-.65-.47-.06-.63-.25-.69-.71-1.52-10.14-3.05-20.29-4.58-30.43-.24-1.61-.5-3.21-.91-4.85-2.51,6.48-5.03,12.96-7.61,19.62-1.97-4.23-3.88-8.33-5.79-12.44-1.92-4.12-3.83-8.25-5.74-12.37l-.18,.03Z"/>
        <path class="cls-1" d="M236.95,101.46c-6.84-.09-13.3-1.81-18.86-6.19-5.38-4.23-8.31-9.84-9.09-16.61-.8-6.86,.54-13.21,4.55-18.9,3.87-5.49,9.17-9.1,15.45-11.35,5.48-1.96,11.13-2.76,16.92-2.01,7.26,.94,13.42,4.08,18.32,9.59,.51,.57,.52,.91-.03,1.48-7.88,8.34-15.73,16.71-23.57,25.08-.24,.26-.75,.51-.58,.86,.16,.33,.7,.18,1.07,.17,6.31-.27,11.71-2.53,16-7.27,.45-.49,.84-1.38,1.38-1.35,.52,.02,1.02,.79,1.52,1.24,3.61,3.25,7.22,6.51,10.84,9.74,.5,.45,.55,.68,.05,1.2-6.38,6.53-14.17,10.5-22.91,12.79-3.58,.94-7.21,1.47-11.05,1.53Zm-13.96-28.78c.1,3.81,1.89,7.63,5.58,10.54,.45,.36,.7,.38,1.12-.09,5.95-6.77,11.92-13.52,17.91-20.26,.36-.41,.4-.63,0-1.04-4.02-4.08-10.26-5.39-15.57-3.24-5.5,2.23-9.01,7.38-9.03,14.09Z"/>
        <path class="cls-1" d="M123.87,128.54c-11.83,0-20.95-7.96-22.36-19.42-.72-5.85,.56-11.36,3.36-16.48,4.64-8.49,11.55-14.28,21.03-16.62,7.51-1.86,14.62-.84,20.83,4.06,4.7,3.71,7.22,8.72,7.76,14.62,.95,10.26-3.14,18.59-10.43,25.5-4.73,4.48-10.4,7.19-16.88,8.12-1.16,.17-2.32,.29-3.32,.23Zm8.63-47.14c-2.48-.42-4.84-.18-7.53,1-7.24,3.18-9.45,10.77-6,16.9,3.95,7.03,13.88,8.8,20.37,3.67,4.53-3.58,5.99-9.8,3.46-14.74-.18-.34-.32-.72-.71-1.04,0,.43-.01,.74,0,1.05,.1,1.92-.57,3.55-1.86,4.95-3.47,3.74-10.11,3.29-13.04-.73-2.28-3.12-1.39-7.21,1.66-9.5,1.09-.81,2.38-1.15,3.66-1.56Zm9.44,5.62l.05,.04v-.07l-.05,.03Z"/>
        <path class="cls-1" d="M352.24,119.77c-10.46,0-18.52-6.1-20.98-15.8-1.46-5.77-.61-11.35,1.97-16.63,4.24-8.68,10.96-14.58,20.36-17.07,7.49-1.99,14.6-1.05,20.81,3.93,4.29,3.45,6.61,8.07,7.16,13.5,.92,9.22-2.63,16.79-8.97,23.22-4.66,4.72-10.32,7.56-16.87,8.6-1.21,.19-2.44,.3-3.47,.26Zm7.97-44.87c-2.45-.5-4.86-.33-7.22,.45-8.71,2.88-11.5,13-5.43,19.63,5.21,5.69,14.69,5.81,20.04,.25,3.49-3.62,4.38-9.03,2.2-13.39-.13-.25-.17-.6-.6-.71,.17,1.61-.09,3.08-.91,4.43-2.81,4.59-10.03,5.04-13.57,.85-2.32-2.75-2.18-6.48,.35-9.05,1.41-1.43,3.17-2.15,5.13-2.47Zm9.01,5.98l-.04-.06s-.04,.03-.04,.05c0,.02,.02,.04,.04,.05l.05-.05Z"/>
        <path class="cls-1" d="M257.54,23.2c-.1,.33-.4,.35-.62,.46-5.25,2.62-10.51,5.23-15.76,7.84-2.82,1.4-5.66,2.78-8.47,4.21-.54,.27-.86,.35-1.16-.27-.36-.73-1.28-1.35-1.17-2.07,.11-.7,.91-1.3,1.43-1.93,5.4-6.49,10.81-12.98,16.22-19.47q.68-.81,1.29,.02c2.6,3.53,5.2,7.06,7.8,10.59,.16,.21,.3,.43,.44,.63Z"/>
        <path class="cls-3" d="M201.22,71.66c-.28,3.74-.12,7.21,.58,10.79-1.91-.73-3.67-1.4-5.44-2.08-.71-.27-1.4-.58-2.12-.81-.63-.2-.84-.35-.24-.92,2.37-2.25,4.7-4.54,7.21-6.98Z"/>
        <path class="cls-3" d="M92.18,126.06c-.12,.04-.15-.03-.16-.12,0-.03,.04-.07,.06-.1,.03,.08,.06,.16,.09,.24v-.02Z"/>
        <path class="cls-2" d="M76.13,64.76c1.91-.04,4.09,.38,6.12,1.36,5.49,2.64,7.02,6.97,6.82,12.25-.2,5.41-3.03,9.46-6.95,12.89-2.01,1.76-4.19,3.28-6.4,4.76-.46,.31-.65,.27-.83-.3-2.86-9.26-5.84-18.49-8.49-27.81-.13-.45-.07-.66,.37-.88,2.84-1.43,5.81-2.29,9.36-2.28Zm3.73,19.53h0c.54-1.82,.71-3.66,.56-5.55-.18-2.16-1.13-3.77-3.07-4.78-.68-.36-1.44-.47-2.17-.66-.69-.18-.91-.09-.66,.68,1.08,3.42,2.13,6.86,3.19,10.29,.22,.71,.44,1.41,.69,2.22,1.5-1.36,2.75-2.72,3.51-4.45-.75,.69-1.19,1.65-2.04,2.25Zm2.42-2.96l-.04-.06s-.05,.08-.07,.12c0,.01,.03,.04,.04,.06,.02-.04,.04-.08,.06-.12Zm-.22,.47s.05-.03,.05-.05c0-.02-.03-.04-.04-.06l-.05,.08,.05,.03Z"/>
        <path class="cls-2" d="M222.98,72.68c.02-6.72,3.53-11.86,9.03-14.09,5.31-2.15,11.55-.84,15.57,3.24,.41,.42,.37,.64,0,1.04-5.98,6.74-11.95,13.49-17.91,20.26-.42,.47-.66,.45-1.12,.09-3.69-2.91-5.48-6.73-5.58-10.54Zm16.26-7.89c.12,0,.17-.07,.17-.18l.18-.18c.15-.07,.24-.16,.19-.34,.14,.05,.18-.04,.2-.15,.3-.13,.46-.37,.55-.67-.31,.11-.52,.3-.6,.63-.12,0-.17,.08-.16,.19-.16,.07-.29,.16-.17,.36-.18-.07-.2,.03-.18,.17-.16-.04-.2,.04-.17,.18l-.14,.03,.06,.09,.07-.13Zm-.52,.53c-.2,.13-.4,.18-.66,.1-1.71-.52-3.45-.61-5.2-.28-1.06,.2-2.24,.2-2.97,1.25-2.02,2.89-2.32,5.96-1.02,9.22,.27,.68,.48,.6,.9,.11,2.84-3.26,5.7-6.51,8.55-9.76,.17-.19,.41-.34,.39-.65l.13-.02-.05-.09-.07,.12Z"/>
        <path class="cls-2" d="M132.49,81.4c-1.27,.4-2.57,.74-3.66,1.56-3.06,2.29-3.94,6.38-1.66,9.5,2.93,4.02,9.57,4.47,13.04,.73,1.29-1.39,1.96-3.02,1.86-4.95-.02-.31,0-.62,0-1.05,.39,.32,.54,.7,.71,1.04,2.53,4.94,1.07,11.16-3.46,14.74-6.49,5.13-16.41,3.36-20.37-3.67-3.45-6.13-1.24-13.73,6-16.9,2.69-1.18,5.06-1.42,7.53-1Z"/>
        <polygon class="cls-2" points="141.94 87.02 141.99 86.99 141.99 87.05 141.94 87.02"/>
        <path class="cls-2" d="M360.22,74.9c-1.96,.32-3.72,1.04-5.13,2.47-2.53,2.57-2.67,6.29-.35,9.05,3.53,4.19,10.75,3.74,13.57-.85,.83-1.35,1.08-2.82,.91-4.43,.42,.11,.47,.46,.6,.71,2.18,4.36,1.29,9.77-2.2,13.39-5.35,5.55-14.83,5.44-20.04-.25-6.08-6.63-3.28-16.75,5.43-19.63,2.36-.78,4.77-.95,7.22-.45Z"/>
        <path class="cls-2" d="M369.23,80.88l-.05,.05s-.04-.04-.04-.05c0-.02,.03-.03,.04-.05l.04,.06Z"/>
        <path class="cls-3" d="M79.86,84.29c.85-.6,1.29-1.56,2.04-2.25-.77,1.73-2.02,3.09-3.51,4.45-.25-.81-.47-1.51-.69-2.22-1.06-3.43-2.11-6.87-3.19-10.29-.24-.76-.02-.86,.66-.68,.73,.2,1.49,.31,2.17,.66,1.93,1.01,2.89,2.62,3.07,4.78,.16,1.89-.02,3.73-.56,5.54-.13,0-.15,.04-.08,.14l.08-.13Z"/>
        <path class="cls-3" d="M82.28,81.33l-.06,.12s-.05-.04-.04-.06c.02-.04,.04-.08,.07-.12l.04,.06Z"/>
        <path class="cls-3" d="M82.06,81.8l-.05-.03,.05-.08s.04,.04,.04,.06c0,.02-.03,.03-.05,.05Z"/>
        <path class="cls-3" d="M238.71,65.32c.03,.31-.22,.46-.39,.65-2.85,3.26-5.71,6.5-8.55,9.76-.42,.48-.63,.57-.9-.11-1.3-3.26-1-6.33,1.02-9.22,.73-1.04,1.91-1.04,2.97-1.25,1.75-.33,3.49-.24,5.2,.28,.25,.08,.45,.04,.66-.1h0Z"/>
        <path class="cls-3" d="M239.93,63.91c.08-.33,.29-.52,.6-.63-.1,.3-.25,.55-.55,.67l-.05-.05Z"/>
        <path class="cls-3" d="M239.6,64.46c-.12-.2,0-.29,.17-.36h0c.06,.19-.04,.28-.19,.35v.02Z"/>
        <path class="cls-3" d="M239.77,64.09c0-.11,.05-.18,.16-.19l.05,.05c-.03,.11-.06,.2-.2,.15h0Z"/>
        <path class="cls-3" d="M239.59,64.44l-.18,.18h.01c-.03-.13,0-.23,.18-.16v-.02Z"/>
        <path class="cls-3" d="M239.42,64.62c0,.11-.06,.18-.17,.18h.01c-.02-.12,.01-.2,.17-.16h-.01Z"/>
        <path class="cls-3" d="M239.24,64.79l-.07,.13-.06-.09,.14-.03h-.01Z"/>
        <path class="cls-3" d="M238.72,65.33l.07-.12,.05,.09-.13,.02h0Z"/>
        <path class="cls-2" d="M79.86,84.29l-.08,.13c-.07-.1-.06-.15,.08-.14h0Z"/>
      </g>
    </g>
  </g>
</svg>