<?xml version="1.0" encoding="UTF-8"?>
<svg xmlns="http://www.w3.org/2000/svg" viewBox="0 0 500 500">
  <defs>
    <style>
      .cls-1 {
        fill: #e4e7ec;
      }

      .cls-2 {
        fill: #ced0d5;
      }

      .cls-3 {
        fill: #ec5463;
      }

      .cls-4 {
        fill: #f07782;
      }

      .cls-5 {
        fill: none;
      }

      .cls-6 {
        fill: #424954;
      }
    </style>
  </defs>
  <g id="Capa_1" data-name="Capa 1"/>
  <g id="Capa_2" data-name="Capa 2">
    <g id="Capa_1-2" data-name="Capa 1">
      <rect class="cls-5" x="0" width="500" height="500"/>
      <g>
        <path class="cls-3" d="M1.77,222.28c1.25-17.94,5.42-35.28,11.29-52.19,20.73-59.8,58.53-105.68,113.33-137.32C162.57,11.88,201.73,1.18,243.52,.2c.92-.02,1.85,.07,2.77,.11,1.83,1.01,3.67,.99,5.5,.02,.91,.03,1.82,.05,2.73,.08,.36,1.33,1.4,1.39,2.53,1.49,20.18,1.67,39.53,6.79,58.54,13.66,33.99,12.28,63.44,31.72,89.23,56.68,11.47,11.1,21.73,23.39,30.74,36.7,15.4,22.77,27.05,47.24,34.32,73.72,3.82,13.89,6.87,27.99,7.83,42.43-11.9,1.52-23.77,3.25-35.7,4.51-15.76,1.67-31.55,3.16-47.36,4.37-16.89,1.28-33.82,2.1-50.72,3.23-2.54,.17-3.47-.93-4.17-3.16-10.57-33.23-32.54-55.24-66.24-64.06-33.75-8.84-63.7-.35-89.05,23.67-11.65,11.04-19.66,24.44-24.2,39.83-.86,2.91-2.12,3.93-5.15,3.71-8.14-.58-16.32-.68-24.46-1.31-23.93-1.88-47.88-3.5-71.75-6.14-19.1-2.11-38.17-4.46-57.15-7.45Z"/>
        <path class="cls-1" d="M498.88,273.83c-1.08,10.82-2.98,21.5-5.39,32.12-4.77,21.06-11.97,41.25-22.13,60.26-9.06,16.95-19.62,32.92-32.49,47.4-13.66,15.37-28.54,29.32-45.29,41.15-10.9,7.7-22.47,14.41-34.54,20.26-18.68,9.05-38.11,15.83-58.42,19.88-10.94,2.18-21.97,3.92-33.22,4.4-7.68,.33-15.35,.69-23.04,.67-.14-1.72-1.4-1.66-2.67-1.81-5.32-.63-10.69-1.06-15.94-2.07-29.36-5.67-56.89-16.05-82.72-31.3-18.12-10.69-34.38-23.67-49.22-38.32-10.68-10.54-20.16-22.23-28.76-34.67-16.98-24.56-29.22-51.15-36.46-80.09-2.79-11.15-4.91-22.42-6.4-33.81,1.54,.07,3.09,.02,4.61,.22,26.9,3.57,53.89,6.29,80.97,8.11,16.46,1.1,32.92,2.22,49.39,3.17,2.86,.17,4.19,1.13,5.21,3.92,13.88,37.93,51.65,63.09,91.89,60.47,40.16-2.62,67.78-23.31,83.25-60.31,1.16-2.76,2.47-3.96,5.61-4.12,44.37-2.17,88.64-5.61,132.68-11.61,7.72-1.05,15.61-1.34,23.09-3.9Z"/>
        <path class="cls-6" d="M498.88,273.83c-7.48,2.56-15.37,2.85-23.09,3.9-44.03,5.99-88.3,9.44-132.68,11.61-3.14,.15-4.45,1.35-5.61,4.12-15.47,37-43.09,57.7-83.25,60.31-40.24,2.62-78-22.54-91.89-60.47-1.02-2.79-2.35-3.75-5.21-3.92-16.47-.95-32.93-2.07-49.39-3.17-27.08-1.81-54.07-4.54-80.97-8.11-1.52-.2-3.07-.15-4.61-.22l-21.06-3.21c-1.53-16.26-1.46-32.53-.06-48.79,.1-1.21,.46-2.4,.7-3.59,18.99,2.98,38.05,5.33,57.15,7.45,23.87,2.64,47.82,4.26,71.75,6.14,8.14,.64,16.32,.73,24.46,1.31,3.03,.22,4.29-.81,5.15-3.71,4.54-15.39,12.55-28.79,24.2-39.83,25.35-24.03,55.3-32.51,89.05-23.67,33.69,8.82,55.66,30.83,66.24,64.06,.71,2.23,1.63,3.33,4.17,3.16,16.9-1.12,33.83-1.94,50.72-3.23,15.81-1.2,31.59-2.7,47.36-4.37,11.93-1.26,23.8-2.99,35.7-4.51,6.84-.27,13.54-1.6,20.28-2.69,2.05,13.72,2.04,27.51,1.39,41.31-.16,3.37-.34,6.74-.51,10.11Zm-249.06,28.17c22.75,.14,41.79-18.84,41.78-41.66-.01-22.52-18.87-41.43-41.46-41.57-22.66-.15-41.76,18.91-41.82,41.72-.06,22.57,18.73,41.36,41.5,41.51Z"/>
        <path class="cls-4" d="M498,222.4c-6.73,1.09-13.43,2.42-20.28,2.69-.97-14.45-4.02-28.54-7.83-42.43-7.27-26.48-18.92-50.95-34.32-73.72-9.01-13.32-19.27-25.6-30.74-36.7-25.8-24.97-55.24-44.4-89.23-56.68-19.01-6.87-38.35-11.99-58.54-13.66-1.13-.09-2.18-.15-2.53-1.49,14.06-.36,27.91,1.45,41.69,4.04,45.57,8.55,85.76,28.19,120.21,59.17,43.17,38.82,69.86,86.93,79.9,144.18,.85,4.84,2.05,9.63,1.68,14.61Z"/>
        <path class="cls-2" d="M1.13,274.67l21.06,3.21c1.48,11.39,3.61,22.66,6.4,33.81,7.24,28.94,19.48,55.53,36.46,80.09,8.6,12.44,18.09,24.13,28.76,34.67,14.85,14.65,31.11,27.63,49.22,38.32,25.83,15.24,53.36,25.63,82.72,31.3,5.25,1.01,10.62,1.44,15.94,2.07,1.27,.15,2.53,.09,2.67,1.81-30.6-.56-59.98-6.94-88.38-18.26-35.84-14.3-66.43-36.15-92.13-64.72-23.02-25.58-40.08-54.78-50.96-87.56-5.93-17.85-10.01-36.03-11.77-54.74Z"/>
        <path class="cls-4" d="M251.79,.33c-1.84,.97-3.67,1-5.5-.02,1.84-.41,3.67-.42,5.5,.02Z"/>
        <path class="cls-1" d="M249.82,302c-22.77-.14-41.56-18.94-41.5-41.51,.06-22.81,19.16-41.87,41.82-41.72,22.59,.15,41.45,19.05,41.46,41.57,.01,22.81-19.03,41.8-41.78,41.66Z"/>
      </g>
    </g>
  </g>
</svg>